<svg width="519" height="519" viewBox="0 0 519 519" fill="none" xmlns="http://www.w3.org/2000/svg">
<rect width="519" height="519" fill="white"/>
<circle cx="258.724" cy="271.276" r="130.724" fill="white"/>
<path d="M263.033 190.955C250.648 190.962 238.424 193.824 227.27 199.33C216.116 204.835 206.319 212.842 198.608 222.755C190.898 232.667 185.471 244.23 182.733 256.584C179.994 268.937 180.015 281.763 182.792 294.108C185.569 306.452 191.032 317.998 198.774 327.885C206.516 337.772 216.337 345.747 227.509 351.215C238.68 356.684 250.913 359.507 263.298 359.472C275.683 359.438 287.901 356.549 299.043 351.018L298.806 350.6C302.435 348.219 305.213 344.7 306.724 340.57C308.234 336.439 308.397 331.92 307.187 327.687C305.977 323.454 303.459 319.736 300.011 317.089C296.563 314.441 292.369 313.007 288.057 313.001C285.204 312.99 282.383 313.617 279.791 314.837C278.866 315.273 277.975 315.78 277.125 316.354C268.04 319.732 258.139 320.06 248.859 317.291C239.579 314.521 231.405 308.799 225.522 300.953C219.639 293.108 216.354 283.549 216.145 273.664C215.936 263.78 218.813 254.084 224.358 245.986C229.904 237.888 237.829 231.808 246.983 228.631C256.137 225.453 266.043 225.343 275.262 228.316C284.481 231.289 292.534 237.19 298.25 245.163C303.967 253.136 307.05 262.765 307.051 272.652C307.054 276.061 306.694 279.46 305.976 282.789C305.639 283.628 305.363 284.492 305.148 285.372C304.758 286.98 304.56 288.63 304.557 290.287C304.56 294.756 306.013 299.097 308.689 302.63C311.364 306.164 315.11 308.689 319.339 309.811C323.568 310.933 328.042 310.587 332.059 308.828C336.076 307.07 339.408 303.998 341.534 300.094L341.846 300.214C342.032 299.606 342.204 299.001 342.362 298.4C343.306 296.218 343.856 293.879 343.985 291.496C345.017 286.141 345.532 280.694 345.522 275.236C345.5 252.875 336.799 231.438 321.331 215.635C305.864 199.832 284.896 190.955 263.033 190.955V190.955ZM274.642 318.267C274.642 318.267 274.642 318.212 274.642 318.267V318.267ZM274.169 318.696C274.194 318.689 274.22 318.689 274.244 318.696C274.22 318.689 274.194 318.689 274.169 318.696V318.696ZM268.031 332.724C268.031 332.966 268.031 333.197 268.031 333.439C268.01 333.197 268.031 332.966 268.031 332.724V332.724ZM271.869 321.4C271.847 321.448 271.814 321.49 271.772 321.521C271.809 321.485 271.841 321.444 271.869 321.4ZM271.536 321.884C271.536 321.884 271.471 321.983 271.417 322.049C271.457 321.997 271.493 321.942 271.525 321.884H271.536ZM271.181 322.434C271.145 322.502 271.106 322.568 271.063 322.631C271.106 322.609 271.127 322.489 271.17 322.434H271.181ZM270.826 322.994L270.719 323.181L270.826 322.994ZM270.525 323.577L270.45 323.72C270.452 323.665 270.476 323.614 270.514 323.577H270.525ZM270.031 324.533C270.002 324.59 269.977 324.649 269.955 324.709C269.945 324.654 269.998 324.61 270.02 324.533H270.031ZM269.794 325.039C269.794 325.138 269.719 325.237 269.676 325.314C269.707 325.22 269.743 325.129 269.783 325.039H269.794ZM269.536 325.677C269.487 325.775 269.447 325.878 269.418 325.985C269.444 325.879 269.48 325.776 269.525 325.677H269.536ZM269.3 326.303C269.254 326.403 269.214 326.506 269.182 326.611C269.198 326.503 269.234 326.398 269.289 326.303H269.3ZM269.063 326.93C269.01 327.051 268.988 327.172 268.945 327.26C268.995 327.156 269.031 327.045 269.053 326.93H269.063ZM268.87 327.579C268.87 327.722 268.805 327.843 268.752 327.986C268.773 327.843 268.816 327.722 268.859 327.579H268.87ZM268.687 328.249C268.687 328.469 268.569 328.689 268.515 328.909C268.558 328.689 268.644 328.469 268.644 328.249H268.687ZM268.472 329.096C268.472 329.272 268.397 329.415 268.375 329.58C268.423 329.422 268.451 329.26 268.461 329.096H268.472ZM268.332 329.844L268.257 330.283L268.332 329.844ZM268.236 330.569C268.226 330.708 268.226 330.848 268.236 330.987C268.223 330.848 268.219 330.709 268.225 330.569H268.236ZM268.139 331.273C268.139 331.416 268.139 331.559 268.139 331.702C268.107 331.559 268.107 331.405 268.128 331.273H268.139ZM268.074 331.998C268.074 332.163 268.074 332.306 268.074 332.482C268.086 332.321 268.083 332.159 268.064 331.998H268.074ZM321.423 270.311L320.971 270.376L321.423 270.311ZM324.207 270.113C323.927 270.113 323.669 270.113 323.379 270.113C323.658 270.113 323.916 270.113 324.196 270.113H324.207ZM323.132 270.113C322.949 270.113 322.777 270.113 322.594 270.113C322.765 270.134 322.938 270.142 323.11 270.135L323.132 270.113ZM322.261 270.19H321.767H322.261ZM320.627 270.431C320.477 270.449 320.33 270.482 320.186 270.53C320.324 270.493 320.464 270.467 320.606 270.453L320.627 270.431ZM319.853 270.574C319.714 270.574 319.574 270.651 319.423 270.673C319.561 270.658 319.698 270.632 319.832 270.596L319.853 270.574ZM319.079 270.772C318.929 270.772 318.789 270.838 318.649 270.893L319.079 270.772ZM318.316 271.014L317.897 271.157L318.316 271.014ZM317.585 271.256C317.402 271.322 317.23 271.399 317.069 271.443C317.209 271.421 317.381 271.344 317.564 271.278L317.585 271.256ZM316.596 271.663L316.166 271.85C316.3 271.788 316.436 271.733 316.575 271.685L316.596 271.663ZM315.822 272.004C315.704 272.041 315.591 272.096 315.489 272.169L315.822 272.004ZM315.113 272.366L314.801 272.531L315.113 272.366ZM314.425 272.751C314.328 272.751 314.231 272.872 314.145 272.916C314.21 272.894 314.307 272.817 314.403 272.773L314.425 272.751ZM313.791 273.136C313.698 273.186 313.609 273.241 313.522 273.301C313.607 273.238 313.697 273.183 313.791 273.136V273.136ZM313.146 273.543L312.909 273.719C312.978 273.681 313.043 273.637 313.103 273.587L313.146 273.543ZM312.512 274.005C312.435 274.052 312.363 274.108 312.297 274.169C312.359 274.138 312.417 274.097 312.469 274.048L312.512 274.005ZM311.92 274.488C311.874 274.512 311.834 274.546 311.802 274.587C311.825 274.566 311.85 274.547 311.877 274.532L311.92 274.488ZM307.621 279.414C307.621 279.414 307.535 279.48 307.535 279.458L307.621 279.414ZM309.889 276.445L309.813 276.511L309.889 276.445ZM309.416 276.973C309.416 276.973 309.341 277.05 309.319 277.094C309.324 277.069 309.328 277.043 309.33 277.017L309.416 276.973ZM308.943 277.556C308.917 277.601 308.884 277.641 308.846 277.677C308.851 277.651 308.855 277.625 308.857 277.6L308.943 277.556ZM308.491 278.16C308.465 278.203 308.437 278.243 308.405 278.281C308.407 278.255 308.411 278.23 308.416 278.204L308.491 278.16ZM308.051 278.787C308.023 278.826 307.998 278.866 307.975 278.908C307.969 278.883 307.966 278.857 307.965 278.831L308.051 278.787Z" fill="#2658A8"/>
<path d="M208.449 194.355C210.792 192.661 212.705 190.42 214.031 187.817C215.357 185.215 216.056 182.326 216.07 179.392V134.316C216.067 129.459 214.18 124.802 210.822 121.368C207.464 117.934 202.911 116.003 198.162 116V116C193.411 116 188.855 117.929 185.495 121.364C182.135 124.799 180.246 129.457 180.243 134.316V211.737C180.243 211.737 181.802 218.641 188.015 214.1C189.849 211.762 191.784 209.52 193.819 207.372C198.275 202.562 203.175 198.203 208.449 194.355V194.355Z" fill="#F6A21E"/>
<path d="M385.068 417.196C384.668 416.788 384.446 416.238 384.45 415.667C384.447 415.387 384.5 415.109 384.607 414.85C384.713 414.591 384.87 414.356 385.068 414.159C385.476 413.758 386.026 413.536 386.598 413.541C387.153 413.541 387.686 413.761 388.079 414.154C388.472 414.547 388.692 415.08 388.692 415.635C388.698 415.919 388.646 416.201 388.54 416.463C388.434 416.726 388.275 416.965 388.074 417.165C387.877 417.363 387.642 417.52 387.383 417.626C387.124 417.732 386.846 417.786 386.566 417.783C386.01 417.787 385.473 417.577 385.068 417.196V417.196Z" fill="#3D3D3D"/>
<path d="M190.859 394.237C190.579 394.24 190.302 394.187 190.043 394.081C189.784 393.974 189.548 393.817 189.351 393.619C189.144 393.422 188.98 393.184 188.868 392.921C188.757 392.658 188.7 392.375 188.702 392.09C188.697 391.807 188.753 391.526 188.864 391.266C188.976 391.006 189.142 390.773 189.351 390.581C189.642 390.265 190.023 390.046 190.442 389.954C190.861 389.862 191.299 389.9 191.696 390.065C192.092 390.229 192.429 390.512 192.659 390.874C192.89 391.236 193.004 391.661 192.986 392.09C192.99 392.661 192.768 393.211 192.368 393.619C192.17 393.817 191.935 393.974 191.676 394.081C191.417 394.187 191.139 394.24 190.859 394.237ZM192.43 397.892C192.47 397.887 192.511 397.891 192.548 397.904C192.586 397.917 192.621 397.938 192.649 397.967C192.677 397.995 192.699 398.03 192.712 398.067C192.725 398.105 192.729 398.146 192.724 398.186V417.531C192.727 417.57 192.722 417.609 192.708 417.646C192.694 417.682 192.673 417.715 192.645 417.742C192.616 417.77 192.583 417.79 192.546 417.802C192.509 417.815 192.469 417.819 192.43 417.814H189.288C189.249 417.819 189.21 417.815 189.173 417.802C189.136 417.79 189.102 417.77 189.074 417.742C189.046 417.715 189.024 417.682 189.011 417.646C188.997 417.609 188.992 417.57 188.995 417.531V398.186C188.99 398.146 188.994 398.105 189.007 398.067C189.02 398.03 189.041 397.995 189.069 397.967C189.098 397.938 189.132 397.917 189.17 397.904C189.208 397.891 189.248 397.887 189.288 397.892H192.43Z" fill="#3D3D3D"/>
<path d="M201.082 399.212C202.355 398.39 203.84 397.957 205.355 397.966C205.801 397.961 206.247 398 206.685 398.081C206.725 398.081 206.764 398.091 206.799 398.108C206.835 398.126 206.865 398.151 206.89 398.182C206.914 398.214 206.931 398.25 206.939 398.288C206.947 398.327 206.946 398.367 206.937 398.405L206.287 401.548C206.283 401.586 206.27 401.622 206.25 401.655C206.23 401.687 206.203 401.715 206.171 401.736C206.139 401.757 206.103 401.77 206.065 401.776C206.027 401.781 205.989 401.779 205.952 401.768C205.753 401.756 205.554 401.756 205.355 401.768C204.294 401.753 203.269 402.151 202.496 402.878C201.702 403.569 201.197 404.534 201.082 405.58V417.604C201.085 417.643 201.08 417.682 201.066 417.719C201.053 417.756 201.031 417.789 201.003 417.816C200.975 417.843 200.941 417.863 200.904 417.876C200.867 417.888 200.827 417.892 200.789 417.887H197.573C197.534 417.892 197.495 417.888 197.458 417.876C197.421 417.863 197.387 417.843 197.359 417.816C197.331 417.789 197.309 417.756 197.295 417.719C197.282 417.682 197.276 417.643 197.28 417.604V398.102C197.275 398.062 197.279 398.022 197.292 397.984C197.304 397.946 197.326 397.911 197.354 397.883C197.383 397.855 197.417 397.833 197.455 397.82C197.493 397.807 197.533 397.803 197.573 397.808H200.789C200.828 397.803 200.869 397.807 200.907 397.82C200.944 397.833 200.979 397.855 201.007 397.883C201.036 397.911 201.057 397.946 201.07 397.984C201.083 398.022 201.087 398.062 201.082 398.102V399.212V399.212Z" fill="#3D3D3D"/>
<path d="M221.789 397.945C221.784 397.905 221.788 397.864 221.801 397.827C221.814 397.789 221.836 397.754 221.864 397.726C221.892 397.698 221.927 397.676 221.965 397.663C222.003 397.65 222.043 397.646 222.083 397.651H225.298C225.337 397.648 225.376 397.653 225.413 397.667C225.449 397.681 225.482 397.702 225.51 397.73C225.537 397.759 225.557 397.792 225.57 397.829C225.582 397.866 225.586 397.906 225.581 397.945V417.374C225.586 417.412 225.582 417.451 225.57 417.488C225.558 417.525 225.537 417.558 225.51 417.585C225.482 417.613 225.449 417.633 225.412 417.646C225.376 417.658 225.337 417.662 225.298 417.657H222.083C222.044 417.661 222.005 417.658 221.967 417.645C221.93 417.633 221.897 417.612 221.868 417.585C221.84 417.558 221.819 417.525 221.805 417.489C221.791 417.452 221.786 417.413 221.789 417.374V416.326C221.456 416.574 221.106 416.798 220.742 416.997C219.778 417.475 218.727 417.753 217.652 417.814H217.453H216.856H216.605H216.385H216.165H215.966C215.39 417.71 214.826 417.552 214.28 417.342C213.163 416.918 212.164 416.232 211.368 415.342C210.134 414.038 209.394 412.346 209.273 410.555C209.273 410.304 209.273 410.042 209.273 409.759V406.01V405.433V404.386C209.273 402.522 209.273 400.982 209.273 399.757V398.175C209.273 397.966 209.367 397.861 209.566 397.861H212.708C212.897 397.861 213.002 397.966 213.002 398.175V399.757C213.002 400.982 213.002 402.522 213.002 404.386V406.628V407.225V410.314C213.035 410.636 213.094 410.955 213.18 411.268C213.355 411.901 213.674 412.485 214.112 412.975C214.557 413.46 215.1 413.845 215.704 414.106C216.006 414.221 216.318 414.308 216.636 414.368H216.772H216.888H217.087H217.369H217.589C218.167 414.355 218.737 414.226 219.264 413.989C219.792 413.751 220.266 413.41 220.658 412.985C220.981 412.653 221.25 412.271 221.454 411.854C221.603 411.534 221.722 411.201 221.81 410.859C221.81 410.691 221.863 410.566 221.873 410.461V410.398V410.22V409.885V409.634V397.945H221.789Z" fill="#3D3D3D"/>
<path d="M236.275 413.96C236.55 414.068 236.849 414.102 237.141 414.058C237.434 414.014 237.709 413.893 237.94 413.708C237.97 413.686 238.004 413.671 238.041 413.664C238.077 413.656 238.115 413.657 238.151 413.666C238.187 413.675 238.22 413.692 238.249 413.716C238.278 413.739 238.301 413.769 238.317 413.803L240.202 416.327C240.338 416.484 240.307 416.62 240.129 416.725C239.164 417.406 238.011 417.772 236.83 417.772C235.938 417.77 235.063 417.531 234.296 417.078C233.528 416.625 232.895 415.975 232.462 415.196C231.946 414.23 231.686 413.148 231.708 412.053V401.475H228.67C228.632 401.479 228.592 401.476 228.555 401.463C228.518 401.451 228.484 401.43 228.456 401.403C228.428 401.376 228.406 401.343 228.393 401.307C228.379 401.27 228.374 401.231 228.377 401.192V398.05C228.372 398.01 228.376 397.97 228.389 397.932C228.402 397.894 228.423 397.859 228.452 397.831C228.48 397.803 228.514 397.781 228.552 397.768C228.59 397.755 228.631 397.751 228.67 397.756H231.708V393.567C231.703 393.528 231.706 393.489 231.719 393.453C231.731 393.416 231.752 393.383 231.779 393.355C231.807 393.328 231.84 393.307 231.877 393.295C231.913 393.283 231.952 393.279 231.991 393.284H235.133C235.171 393.279 235.21 393.283 235.247 393.295C235.284 393.307 235.317 393.328 235.344 393.355C235.372 393.383 235.392 393.416 235.405 393.453C235.417 393.489 235.421 393.528 235.416 393.567V397.756H238.453C238.493 397.751 238.533 397.755 238.571 397.768C238.609 397.781 238.644 397.803 238.672 397.831C238.7 397.859 238.722 397.894 238.735 397.932C238.747 397.97 238.752 398.01 238.746 398.05V401.192C238.752 401.232 238.747 401.272 238.735 401.31C238.722 401.348 238.7 401.382 238.672 401.411C238.644 401.439 238.609 401.46 238.571 401.473C238.533 401.486 238.493 401.49 238.453 401.485H235.416V412.064C235.35 412.43 235.397 412.807 235.55 413.145C235.703 413.484 235.956 413.768 236.275 413.96V413.96Z" fill="#3D3D3D"/>
<path d="M251.148 397.892C252.417 397.885 253.674 398.141 254.839 398.646C256.004 399.151 257.051 399.893 257.914 400.825C258.816 401.727 259.529 402.8 260.009 403.982C260.489 405.164 260.728 406.431 260.71 407.706V408.963C260.715 409 260.711 409.038 260.7 409.073C260.689 409.109 260.67 409.141 260.646 409.169C260.621 409.197 260.59 409.219 260.556 409.234C260.522 409.249 260.486 409.257 260.448 409.257L245.785 410.524C246.154 411.283 246.673 411.959 247.31 412.513C247.947 413.067 248.688 413.487 249.491 413.748C250.293 414.009 251.14 414.105 251.981 414.032C252.822 413.958 253.639 413.717 254.384 413.32C255.305 412.828 256.085 412.107 256.646 411.226C256.663 411.19 256.686 411.158 256.716 411.132C256.746 411.106 256.781 411.087 256.819 411.076C256.857 411.065 256.896 411.063 256.935 411.069C256.974 411.074 257.011 411.089 257.044 411.11L259.778 412.702C259.816 412.716 259.85 412.739 259.877 412.769C259.904 412.799 259.924 412.835 259.934 412.874C259.944 412.913 259.945 412.954 259.936 412.994C259.927 413.033 259.909 413.07 259.883 413.1C258.996 414.555 257.743 415.751 256.248 416.567C254.764 417.399 253.09 417.832 251.388 417.824C248.748 417.819 246.218 416.768 244.351 414.901C242.484 413.034 241.433 410.504 241.428 407.863C241.4 406.547 241.638 405.239 242.128 404.017C242.617 402.795 243.348 401.685 244.277 400.752C245.161 399.825 246.229 399.092 247.411 398.599C248.594 398.107 249.867 397.866 251.148 397.892V397.892ZM256.762 405.811C256.47 404.593 255.758 403.517 254.751 402.773C253.69 401.994 252.4 401.589 251.085 401.621C249.66 401.599 248.28 402.124 247.23 403.087C246.149 404.052 245.457 405.378 245.282 406.816L256.762 405.811Z" fill="#3D3D3D"/>
<path d="M280.559 397.819C280.616 397.814 280.673 397.829 280.721 397.862C280.769 397.894 280.804 397.942 280.82 397.997C280.852 398.051 280.863 398.115 280.851 398.176C280.839 398.238 280.806 398.293 280.758 398.332L272.954 405.79L282.507 417.311C282.537 417.356 282.553 417.409 282.553 417.463C282.553 417.517 282.537 417.57 282.507 417.615C282.492 417.669 282.459 417.717 282.413 417.749C282.367 417.782 282.311 417.797 282.255 417.793H278.066C278.023 417.798 277.98 417.79 277.941 417.772C277.902 417.753 277.869 417.724 277.846 417.688L270.168 408.429L269.215 409.34V417.51C269.215 417.699 269.121 417.793 268.922 417.793H265.706C265.668 417.798 265.629 417.794 265.592 417.782C265.556 417.77 265.522 417.749 265.495 417.721C265.468 417.694 265.447 417.661 265.435 417.624C265.422 417.587 265.418 417.548 265.424 417.51V386.298C265.424 386.099 265.518 386.004 265.706 386.004H268.922C268.962 385.997 269.003 385.999 269.042 386.011C269.082 386.023 269.117 386.045 269.146 386.074C269.175 386.103 269.196 386.138 269.208 386.177C269.22 386.216 269.223 386.257 269.215 386.298V404.103L275.699 397.924C275.721 397.893 275.751 397.868 275.786 397.851C275.821 397.835 275.859 397.827 275.898 397.829L280.559 397.819Z" fill="#3D3D3D"/>
<path d="M300.983 411.32C300.983 413.157 300.983 414.686 300.983 415.908V417.489C300.986 417.528 300.981 417.567 300.967 417.604C300.954 417.641 300.932 417.674 300.904 417.701C300.876 417.728 300.842 417.748 300.805 417.761C300.768 417.773 300.728 417.777 300.69 417.772H297.495C297.457 417.777 297.418 417.774 297.381 417.761C297.344 417.749 297.311 417.728 297.284 417.701C297.256 417.673 297.236 417.64 297.223 417.603C297.211 417.567 297.207 417.528 297.212 417.489V415.908C297.212 414.682 297.212 413.153 297.212 411.32C297.212 410.828 297.212 410.084 297.212 409.1V405.957V405.497C297.19 405.18 297.131 404.867 297.034 404.564C296.831 403.942 296.491 403.373 296.039 402.899C295.588 402.432 295.037 402.073 294.426 401.852C294.134 401.732 293.828 401.651 293.515 401.611H293.379H293.295H293.044H292.897H292.667H292.551C291.983 401.624 291.424 401.755 290.908 401.994C290.393 402.234 289.932 402.578 289.556 403.004C289.235 403.324 288.976 403.7 288.791 404.114C288.625 404.446 288.502 404.798 288.425 405.161C288.388 405.285 288.36 405.411 288.341 405.538V405.685V405.8C288.348 405.905 288.348 406.01 288.341 406.115V417.636C288.344 417.675 288.339 417.714 288.325 417.751C288.312 417.787 288.29 417.82 288.262 417.847C288.234 417.875 288.2 417.895 288.163 417.907C288.126 417.92 288.086 417.924 288.048 417.919H284.811C284.772 417.924 284.733 417.92 284.696 417.907C284.659 417.895 284.625 417.875 284.597 417.847C284.569 417.82 284.547 417.787 284.533 417.751C284.52 417.714 284.514 417.675 284.518 417.636V398.154C284.514 398.115 284.52 398.076 284.533 398.04C284.547 398.003 284.569 397.97 284.597 397.943C284.625 397.916 284.659 397.895 284.696 397.883C284.733 397.871 284.772 397.867 284.811 397.872H288.048C288.086 397.867 288.126 397.871 288.163 397.883C288.2 397.895 288.234 397.916 288.262 397.943C288.29 397.97 288.312 398.003 288.325 398.04C288.339 398.076 288.344 398.115 288.341 398.154V399.663C288.652 399.425 288.985 399.218 289.336 399.045C290.281 398.556 291.313 398.26 292.373 398.175H292.572H293.368H293.484H293.588H293.808H294.039C294.606 398.264 295.164 398.408 295.704 398.605C296.812 399.002 297.812 399.651 298.626 400.501C299.458 401.34 300.088 402.357 300.47 403.475C300.663 404.02 300.79 404.586 300.847 405.161C300.889 405.449 300.91 405.74 300.91 406.031V408.565V409.162L300.983 411.32Z" fill="#3D3D3D"/>
<path d="M313.824 397.819C316.128 397.824 318.36 398.628 320.138 400.094C321.916 401.56 323.131 403.597 323.576 405.858C324.02 408.119 323.667 410.465 322.576 412.495C321.485 414.525 319.724 416.114 317.593 416.991C315.462 417.868 313.093 417.979 310.889 417.305C308.685 416.631 306.783 415.214 305.507 413.295C304.232 411.376 303.66 409.074 303.892 406.781C304.123 404.488 305.142 402.346 306.775 400.72C307.689 399.78 308.786 399.037 309.998 398.538C311.211 398.039 312.513 397.794 313.824 397.819V397.819ZM313.824 414.033C315.491 414.033 317.089 413.37 318.268 412.192C319.446 411.013 320.108 409.415 320.108 407.748C320.096 406.523 319.722 405.329 319.034 404.316C318.345 403.302 317.373 402.514 316.239 402.051C315.105 401.588 313.859 401.47 312.658 401.712C311.457 401.955 310.354 402.546 309.488 403.412C308.621 404.278 308.03 405.381 307.788 406.582C307.546 407.783 307.664 409.029 308.127 410.163C308.59 411.297 309.378 412.27 310.391 412.958C311.405 413.646 312.599 414.02 313.824 414.033Z" fill="#3D3D3D"/>
<path d="M340.638 394.237C340.079 394.218 339.549 393.984 339.159 393.584C338.769 393.184 338.548 392.649 338.543 392.09C338.536 391.806 338.591 391.525 338.703 391.265C338.815 391.004 338.982 390.771 339.192 390.581C339.483 390.265 339.864 390.046 340.283 389.954C340.703 389.862 341.14 389.9 341.537 390.065C341.934 390.229 342.27 390.512 342.501 390.874C342.731 391.236 342.845 391.661 342.827 392.09C342.831 392.374 342.778 392.656 342.67 392.919C342.562 393.182 342.401 393.42 342.198 393.619C341.995 393.824 341.751 393.985 341.483 394.091C341.214 394.197 340.927 394.247 340.638 394.237ZM342.219 397.892C342.258 397.889 342.298 397.894 342.334 397.908C342.371 397.921 342.404 397.943 342.431 397.971C342.458 397.999 342.478 398.033 342.491 398.07C342.503 398.107 342.507 398.147 342.502 398.186V417.531C342.507 417.569 342.504 417.608 342.491 417.645C342.479 417.682 342.458 417.715 342.431 417.742C342.403 417.77 342.37 417.79 342.333 417.803C342.297 417.815 342.258 417.819 342.219 417.814H339.077C339.039 417.819 339 417.815 338.963 417.803C338.926 417.79 338.893 417.77 338.866 417.742C338.838 417.715 338.818 417.682 338.805 417.645C338.793 417.608 338.789 417.569 338.794 417.531V398.186C338.79 398.147 338.793 398.107 338.806 398.07C338.818 398.033 338.839 397.999 338.866 397.971C338.893 397.943 338.926 397.921 338.963 397.908C338.999 397.894 339.038 397.889 339.077 397.892H342.219Z" fill="#3D3D3D"/>
<path d="M363.544 411.32C363.544 413.153 363.544 414.682 363.544 415.907V417.489C363.549 417.527 363.545 417.566 363.533 417.603C363.521 417.64 363.5 417.673 363.473 417.701C363.445 417.728 363.412 417.749 363.375 417.761C363.339 417.773 363.3 417.777 363.261 417.772H360.067C359.868 417.772 359.773 417.678 359.773 417.489V415.907C359.773 414.686 359.773 413.156 359.773 411.32C359.773 410.828 359.773 410.084 359.773 409.099V405.957V405.496C359.741 405.181 359.682 404.869 359.595 404.564C359.384 403.946 359.045 403.378 358.6 402.899C358.145 402.431 357.59 402.073 356.977 401.851C356.685 401.732 356.378 401.651 356.066 401.611H355.929H355.846H355.605H355.448H355.301H355.196C354.628 401.623 354.068 401.753 353.552 401.992C353.036 402.232 352.576 402.577 352.201 403.004C351.877 403.323 351.614 403.699 351.426 404.114C351.258 404.444 351.138 404.797 351.069 405.161C351.031 405.285 350.999 405.411 350.975 405.538V405.685V405.8C350.982 405.905 350.982 406.01 350.975 406.114V417.636C350.975 417.824 350.881 417.919 350.682 417.919H347.445C347.407 417.924 347.368 417.92 347.331 417.908C347.295 417.895 347.261 417.874 347.234 417.847C347.207 417.82 347.186 417.786 347.174 417.75C347.161 417.713 347.157 417.674 347.163 417.636V398.154C347.157 398.116 347.161 398.077 347.174 398.04C347.186 398.003 347.207 397.97 347.234 397.943C347.261 397.915 347.295 397.895 347.331 397.882C347.368 397.87 347.407 397.866 347.445 397.871H350.682C350.881 397.871 350.975 397.966 350.975 398.154V399.662C351.303 399.422 351.654 399.215 352.023 399.044C352.967 398.556 354 398.26 355.06 398.175H355.259H356.055H356.17H356.275H356.505H356.725C357.293 398.264 357.851 398.407 358.391 398.604C359.503 398.999 360.507 399.648 361.323 400.5C362.152 401.34 362.779 402.357 363.156 403.475C363.35 404.02 363.476 404.586 363.533 405.161C363.581 405.448 363.602 405.739 363.596 406.031V408.565V409.162L363.544 411.32Z" fill="#3D3D3D"/>
<path d="M376.532 414.085C377.687 414.095 378.82 413.775 379.8 413.164C379.831 413.141 379.866 413.125 379.904 413.117C379.941 413.108 379.98 413.108 380.018 413.116C380.055 413.124 380.091 413.14 380.122 413.162C380.153 413.185 380.179 413.214 380.198 413.247L381.968 415.866C381.997 415.894 382.018 415.929 382.03 415.968C382.042 416.007 382.044 416.048 382.035 416.088C382.027 416.128 382.009 416.165 381.982 416.195C381.956 416.226 381.922 416.25 381.884 416.264C380.288 417.288 378.429 417.827 376.532 417.814C375.185 417.817 373.852 417.546 372.613 417.017C371.374 416.488 370.256 415.712 369.327 414.737C368.398 413.762 367.678 412.608 367.209 411.345C366.741 410.082 366.534 408.738 366.603 407.392C366.674 404.963 367.675 402.654 369.399 400.94C370.981 399.289 373.086 398.236 375.356 397.961C377.627 397.687 379.922 398.206 381.853 399.432C381.892 399.448 381.926 399.473 381.954 399.505C381.981 399.538 382 399.576 382.009 399.617C382.018 399.658 382.018 399.701 382.007 399.742C381.996 399.782 381.975 399.82 381.947 399.851L380.166 402.47C380.152 402.504 380.129 402.534 380.1 402.557C380.071 402.58 380.037 402.596 380 402.602C379.964 402.608 379.926 402.605 379.891 402.593C379.856 402.581 379.825 402.56 379.8 402.532C378.567 401.792 377.118 401.496 375.694 401.695C374.308 401.866 373.025 402.518 372.07 403.538C371.092 404.539 370.483 405.843 370.342 407.235C370.264 408.099 370.365 408.969 370.64 409.792C370.915 410.615 371.357 411.371 371.938 412.015C372.519 412.658 373.228 413.174 374.018 413.531C374.809 413.887 375.665 414.076 376.532 414.085V414.085Z" fill="#3D3D3D"/>
<path d="M183.968 407.246C183.846 405.429 183.228 403.68 182.183 402.19C181.138 400.699 179.704 399.523 178.038 398.789C176.372 398.055 174.536 397.791 172.731 398.027C170.925 398.262 169.218 398.987 167.796 400.123V386.298C167.796 386.099 167.702 386.004 167.513 386.004H164.298C164.257 385.997 164.216 385.999 164.177 386.011C164.138 386.023 164.103 386.045 164.074 386.074C164.045 386.103 164.023 386.138 164.011 386.177C163.999 386.216 163.997 386.257 164.004 386.298V411.435C164.892 412.971 166.073 414.316 167.482 415.394L167.796 415.635C169.548 417.067 171.745 417.841 174.007 417.824C175.371 417.848 176.724 417.58 177.976 417.038C179.228 416.496 180.349 415.693 181.265 414.682C182.182 413.709 182.894 412.562 183.36 411.309C183.839 410.011 184.045 408.627 183.968 407.246V407.246ZM178.416 412.304C177.55 413.163 176.451 413.747 175.256 413.986C174.06 414.225 172.821 414.107 171.692 413.647C170.562 413.188 169.593 412.406 168.904 411.4C168.215 410.394 167.837 409.208 167.817 407.989V407.706C167.841 406.69 168.114 405.695 168.612 404.808C169.11 403.922 169.817 403.171 170.672 402.621C171.528 402.071 172.505 401.739 173.518 401.654C174.531 401.57 175.55 401.735 176.485 402.135C177.419 402.535 178.242 403.158 178.88 403.949C179.518 404.741 179.953 405.677 180.145 406.675C180.338 407.674 180.283 408.704 179.985 409.676C179.688 410.648 179.156 411.533 178.437 412.252L178.416 412.304Z" fill="#3D3D3D"/>
</svg>
