<svg width="166" height="244" viewBox="0 0 166 244" fill="none" xmlns="http://www.w3.org/2000/svg">
<path d="M82.7898 74.9551C70.4049 74.9617 58.1808 77.8242 47.0268 83.3297C35.8729 88.8352 26.0761 96.842 18.3653 106.755C10.6545 116.667 5.22802 128.23 2.48965 140.584C-0.248728 152.937 -0.228581 165.763 2.5486 178.108C5.32577 190.452 10.7885 201.998 18.5304 211.885C26.2724 221.772 36.0942 229.747 47.2654 235.215C58.4366 240.684 70.6697 243.507 83.0546 243.472C95.4394 243.438 107.657 240.549 118.8 235.018L118.563 234.6C122.192 232.219 124.97 228.7 126.481 224.57C127.991 220.439 128.154 215.92 126.944 211.687C125.734 207.454 123.216 203.736 119.768 201.089C116.319 198.441 112.126 197.007 107.814 197.001C104.961 196.99 102.14 197.617 99.5478 198.837C98.6231 199.273 97.732 199.78 96.882 200.354C87.7971 203.732 77.8958 204.06 68.616 201.291C59.3363 198.521 51.1613 192.799 45.2784 184.953C39.3955 177.108 36.1109 167.549 35.9017 157.664C35.6925 147.78 38.5695 138.084 44.115 129.986C49.6605 121.888 57.5857 115.808 66.7396 112.631C75.8935 109.453 85.7994 109.343 95.0188 112.316C104.238 115.289 112.291 121.19 118.007 129.163C123.724 137.136 126.807 146.765 126.808 156.652C126.811 160.061 126.451 163.46 125.733 166.789C125.396 167.628 125.119 168.492 124.905 169.372C124.515 170.98 124.317 172.63 124.314 174.287C124.317 178.756 125.77 183.097 128.445 186.63C131.121 190.164 134.866 192.689 139.096 193.811C143.325 194.933 147.799 194.587 151.816 192.828C155.833 191.07 159.165 187.998 161.291 184.094L161.603 184.214C161.789 183.606 161.961 183.001 162.119 182.4C163.063 180.218 163.612 177.879 163.742 175.496C164.774 170.141 165.289 164.694 165.279 159.236C165.256 136.875 156.556 115.438 141.088 99.635C125.621 83.8318 104.652 74.9551 82.7898 74.9551V74.9551ZM94.3989 202.267C94.3989 202.267 94.3989 202.212 94.3989 202.267V202.267ZM93.926 202.696C93.9506 202.689 93.9766 202.689 94.0012 202.696C93.9766 202.689 93.9506 202.689 93.926 202.696V202.696ZM87.7882 216.724C87.7882 216.966 87.7882 217.197 87.7882 217.439C87.7667 217.197 87.7882 216.966 87.7882 216.724V216.724ZM91.6256 205.4C91.6037 205.448 91.5705 205.49 91.5289 205.521C91.5656 205.485 91.598 205.444 91.6256 205.4ZM91.2924 205.884C91.2924 205.884 91.2279 205.983 91.1742 206.049C91.2141 205.997 91.25 205.942 91.2817 205.884H91.2924ZM90.9377 206.434C90.9022 206.502 90.8627 206.568 90.8195 206.631C90.8625 206.609 90.884 206.489 90.927 206.434H90.9377ZM90.583 206.994L90.4755 207.181L90.583 206.994ZM90.282 207.577L90.2067 207.72C90.2092 207.665 90.2323 207.614 90.2712 207.577H90.282ZM89.7875 208.533C89.7585 208.59 89.7334 208.649 89.7123 208.709C89.7015 208.654 89.7553 208.61 89.7768 208.533H89.7875ZM89.5511 209.039C89.5511 209.138 89.4758 209.237 89.4328 209.314C89.4636 209.22 89.4995 209.129 89.5403 209.039H89.5511ZM89.2931 209.677C89.2436 209.775 89.204 209.878 89.1748 209.985C89.2005 209.879 89.2366 209.776 89.2823 209.677H89.2931ZM89.0566 210.303C89.0107 210.403 88.9712 210.506 88.9383 210.611C88.9545 210.503 88.991 210.398 89.0458 210.303H89.0566ZM88.8201 210.93C88.7664 211.051 88.7449 211.172 88.7019 211.26C88.7521 211.156 88.7883 211.045 88.8094 210.93H88.8201ZM88.6266 211.579C88.6266 211.722 88.5621 211.843 88.5084 211.986C88.5299 211.843 88.5729 211.722 88.6159 211.579H88.6266ZM88.4439 212.249C88.4439 212.469 88.3256 212.689 88.2719 212.909C88.3149 212.689 88.4009 212.469 88.4009 212.249H88.4439ZM88.2289 213.096C88.2289 213.272 88.1537 213.415 88.1322 213.58C88.1793 213.422 88.2082 213.26 88.2181 213.096H88.2289ZM88.0891 213.844L88.0139 214.283L88.0891 213.844ZM87.9924 214.569C87.9829 214.708 87.9829 214.848 87.9924 214.987C87.9793 214.848 87.9757 214.709 87.9816 214.569H87.9924ZM87.8957 215.273C87.8957 215.416 87.8957 215.559 87.8957 215.702C87.8634 215.559 87.8634 215.405 87.8849 215.273H87.8957ZM87.8312 215.998C87.8312 216.163 87.8312 216.306 87.8312 216.482C87.8433 216.321 87.8397 216.159 87.8204 215.998H87.8312ZM141.179 154.311L140.728 154.376L141.179 154.311ZM143.964 154.113C143.684 154.113 143.426 154.113 143.136 154.113C143.415 154.113 143.673 154.113 143.953 154.113H143.964ZM142.889 154.113C142.706 154.113 142.534 154.113 142.351 154.113C142.522 154.134 142.695 154.142 142.867 154.135L142.889 154.113ZM142.018 154.19H141.523H142.018ZM140.384 154.431C140.234 154.449 140.086 154.482 139.943 154.53C140.081 154.493 140.221 154.467 140.363 154.453L140.384 154.431ZM139.61 154.574C139.47 154.574 139.331 154.651 139.18 154.673C139.318 154.658 139.454 154.632 139.589 154.596L139.61 154.574ZM138.836 154.772C138.686 154.772 138.546 154.838 138.406 154.893L138.836 154.772ZM138.073 155.014L137.654 155.157L138.073 155.014ZM137.342 155.256C137.159 155.322 136.987 155.399 136.826 155.443C136.966 155.421 137.138 155.344 137.321 155.278L137.342 155.256ZM136.353 155.663L135.923 155.85C136.057 155.788 136.193 155.733 136.332 155.685L136.353 155.663ZM135.579 156.004C135.46 156.041 135.348 156.096 135.246 156.169L135.579 156.004ZM134.87 156.366L134.558 156.531L134.87 156.366ZM134.182 156.751C134.085 156.751 133.988 156.872 133.902 156.916C133.967 156.894 134.064 156.817 134.16 156.773L134.182 156.751ZM133.548 157.136C133.455 157.186 133.365 157.241 133.279 157.301C133.363 157.238 133.453 157.183 133.548 157.136V157.136ZM132.903 157.543L132.666 157.719C132.735 157.681 132.799 157.637 132.86 157.587L132.903 157.543ZM132.268 158.005C132.192 158.052 132.12 158.108 132.053 158.169C132.116 158.138 132.174 158.097 132.225 158.048L132.268 158.005ZM131.677 158.488C131.631 158.512 131.591 158.546 131.559 158.587C131.582 158.566 131.607 158.547 131.634 158.532L131.677 158.488ZM127.378 163.414C127.378 163.414 127.291 163.48 127.291 163.458L127.378 163.414ZM129.646 160.445L129.57 160.511L129.646 160.445ZM129.173 160.973C129.173 160.973 129.097 161.05 129.076 161.094C129.081 161.069 129.085 161.043 129.087 161.017L129.173 160.973ZM128.7 161.556C128.673 161.601 128.641 161.641 128.603 161.677C128.608 161.651 128.612 161.625 128.614 161.6L128.7 161.556ZM128.248 162.16C128.222 162.203 128.193 162.243 128.162 162.281C128.164 162.255 128.168 162.23 128.173 162.204L128.248 162.16ZM127.807 162.787C127.78 162.826 127.755 162.866 127.732 162.908C127.726 162.883 127.722 162.857 127.721 162.831L127.807 162.787Z" fill="#2658A8"/>
<path d="M28.2059 78.355C30.5488 76.6612 32.4626 74.4199 33.7881 71.8174C35.1136 69.2149 35.8127 66.3264 35.8271 63.392V18.3162C35.8242 13.4593 33.9366 8.80222 30.5788 5.3679C27.221 1.93358 22.6676 0.00291266 17.9189 0V0C13.1684 -8.74228e-07 8.61227 1.92939 5.25213 5.36402C1.89199 8.79866 0.00284975 13.4574 0 18.3162V95.7367C0 95.7367 1.55865 102.641 7.77168 98.1004C9.60622 95.7623 11.5411 93.5195 13.5762 91.372C18.0324 86.5622 22.9316 82.203 28.2059 78.355V78.355Z" fill="#F6A21E"/>
</svg>
