<svg width="87" height="190" viewBox="0 0 87 190" fill="none" xmlns="http://www.w3.org/2000/svg">
<path d="M28.1701 84.9801C30.7601 83.4201 34.1301 84.2501 35.6901 86.8501C37.2501 89.4401 36.4201 92.8101 33.8201 94.3701C31.2301 95.9301 27.8601 95.1001 26.3001 92.5001C24.7401 89.9201 25.5801 86.5501 28.1701 84.9801Z" fill="#FCC9A7"/>
<path d="M34.3804 85.3702C34.2004 85.2302 24.5804 73.9302 24.5804 73.9302L20.6504 78.6902L29.3304 89.6802L34.3804 85.3702Z" fill="#FCC9A7"/>
<path d="M26.2701 173.47L23.8201 184.66L16.0801 183.5L18.5801 172.46L26.2701 173.47Z" fill="#FCC9A7"/>
<path d="M60.97 172.47L61.06 183.93L53.27 184.51L53.25 173.19L60.97 172.47Z" fill="#FCC9A7"/>
<path d="M24.7999 182.84C24.6399 182.37 24.0699 182.17 23.6599 182.47C22.8599 183.05 21.4499 183.73 19.4099 183.49C17.2899 183.24 16.5299 182.12 16.2699 181.32C16.1299 180.9 15.6799 180.68 15.2699 180.84L2.1399 186.1C1.3399 186.42 0.699884 187.04 0.369884 187.83C0.0498843 188.57 0.589914 189.4 1.39991 189.4L23.7099 189.56C24.5899 189.57 25.2899 188.84 25.2499 187.96L25.0599 183.65C25.0599 183.58 25.0399 183.51 25.0199 183.44L24.7999 182.84Z" fill="white"/>
<path d="M52.4799 182.84C52.6399 182.37 53.2199 182.17 53.6199 182.47C54.4199 183.05 55.8299 183.73 57.8699 183.49C59.9899 183.24 60.7399 182.12 61.0099 181.32C61.1499 180.9 61.5999 180.68 62.0099 180.84L75.1399 186.1C75.9399 186.42 76.5799 187.04 76.9099 187.83C77.2299 188.57 76.6899 189.4 75.8799 189.4L53.5699 189.56C52.6899 189.57 51.99 188.84 52.03 187.96L52.2199 183.65C52.2199 183.58 52.2399 183.51 52.2599 183.44L52.4799 182.84Z" fill="white"/>
<path d="M52.3797 28.7998L45.4497 29.3998L34.4297 35.6098V79.7698H63.8397V35.6098L52.3797 28.7998Z" fill="#48C2FF"/>
<path d="M50.4797 33.25H48.4897C46.4297 33.25 44.7598 31.58 44.7598 29.52V22.04H54.1998V29.52C54.2098 31.58 52.5397 33.25 50.4797 33.25Z" fill="#FCC9A7"/>
<path d="M44.7598 25.85C44.7598 25.85 46.2298 28.8 49.5698 28.8C52.9098 28.8 54.1998 25.79 54.1998 25.79L44.7598 25.85Z" fill="#F4BE9A"/>
<path d="M49.5896 27.0701H49.2797C44.4697 27.0701 40.5096 23.2701 40.3196 18.4601L40.1496 13.6701C39.9496 8.5801 44.0196 4.3501 49.1096 4.3501H49.7596C53.6096 4.3501 58.9196 8.5801 58.7196 13.6701L58.5496 18.4601C58.3596 23.2701 54.3996 27.0701 49.5896 27.0701Z" fill="#FCC9A7"/>
<path d="M43.07 17.3002C43.18 18.9202 41.96 20.3202 40.34 20.4302C38.72 20.5402 37.32 19.3202 37.21 17.7002C37.1 16.0802 38.32 14.6802 39.94 14.5702C41.56 14.4702 42.96 15.6902 43.07 17.3002Z" fill="#FCC9A7"/>
<path d="M61.6501 17.3002C61.7601 18.9202 60.5401 20.3202 58.9201 20.4302C57.3001 20.5402 55.9001 19.3202 55.7901 17.7002C55.6801 16.0802 56.9001 14.6802 58.5201 14.5702C60.1401 14.4702 61.5401 15.6902 61.6501 17.3002Z" fill="#FCC9A7"/>
<path d="M34.4296 79.5601L16.1396 176.79L26.6497 176.69L53.3896 79.7501L34.4296 79.5601Z" fill="white"/>
<path d="M63.8404 79.77L62.6904 176.89H51.5804L47.1504 80.38L63.8404 79.77Z" fill="white"/>
<path d="M34.4295 35.6099C34.4295 35.6099 9.86948 50.4299 3.89948 60.7099C2.72948 62.7199 4.24946 65.3199 6.30946 66.3899C8.58946 67.5799 11.3995 66.7699 12.7095 64.5599L35.4295 51.3799C35.4395 51.3799 34.4295 40.0599 34.4295 35.6099Z" fill="#48C2FF"/>
<path d="M39.6395 8.22998L40.3295 15.59H41.4394L41.5795 11.73C41.5795 11.73 42.1594 10.25 44.7494 7.06998C44.7494 7.06998 46.4394 11.39 56.9094 10.55L57.5195 15.43L58.5994 15.31L59.1694 10.07C59.5494 8.29998 59.6794 6.64998 59.3594 4.86998C58.7094 1.26998 55.7795 -0.720021 47.3195 1.81998C46.6195 2.02998 48.0495 1.88998 47.3195 1.81998C44.8995 1.54998 38.5195 1.51998 39.6395 8.22998Z" fill="#FFC700"/>
<path d="M52.1002 79.0698L49.7202 104.53C49.6302 105.49 50.2802 106.36 51.2302 106.54L80.4302 112.12C81.5002 112.33 82.5203 111.57 82.6403 110.49L85.3103 86.2898C85.4103 85.3498 84.8003 84.4798 83.8703 84.2598L54.3803 77.4198C53.2803 77.1598 52.2102 77.9398 52.1002 79.0698Z" fill="#AFAFAF"/>
<path d="M53.7203 79.52L51.3403 104.98C51.2503 105.94 51.9003 106.81 52.8503 106.99L82.0503 112.57C83.1203 112.77 84.1403 112.02 84.2603 110.94L86.9303 86.74C87.0303 85.8 86.4203 84.93 85.4903 84.71L56.0003 77.87C54.9103 77.61 53.8303 78.39 53.7203 79.52Z" fill="#D1D1D1"/>
<path d="M68.9194 105.51C71.8194 106.37 73.4795 109.42 72.6195 112.32C71.7595 115.22 68.7095 116.88 65.8095 116.03C62.9095 115.17 61.2494 112.12 62.0994 109.22C62.9694 106.31 66.0094 104.65 68.9194 105.51Z" fill="#FCC9A7"/>
<path d="M72.8297 110.35C72.8097 110.12 71.8697 94.8599 71.8697 94.8599L66.6797 95.7999L67.3697 108.81L72.8297 110.35Z" fill="#FCC9A7"/>
<path d="M63.8399 35.6099C63.8399 35.6099 71.6999 41.2399 72.1999 49.2599L74.6599 68.0099C74.7999 69.1099 74.8599 70.2099 74.8199 71.3199L73.8699 99.8399H63.0799L62.8799 68.9699L63.8399 35.6099Z" fill="#48C2FF"/>
<path d="M46.2797 28.7998C45.4397 29.4098 41.3896 31.6898 41.3896 31.6898C41.3896 31.6898 41.4997 37.3898 50.0797 36.9298C57.6297 36.5298 57.5797 31.8998 57.5797 31.8998L52.3696 28.7998H46.2797V28.7998Z" fill="#FCC9A7"/>
<path d="M15.9995 57.0098L30.6794 80.4698L23.7194 87.0598L3.93945 63.9698L15.9995 57.0098Z" fill="#48C2FF"/>
<path d="M62.8697 79.4601V68.9601L60.4297 49.8101" stroke="#48C2FF" stroke-width="0.7693" stroke-miterlimit="10" stroke-linecap="round" stroke-linejoin="round"/>
</svg>
