<svg width="255" height="277" viewBox="0 0 255 277" fill="none" xmlns="http://www.w3.org/2000/svg">
<path d="M150.52 207.05C93.44 207.05 47 160.61 47 103.52C47 46.43 93.44 0 150.52 0C207.6 0 254.05 46.44 254.05 103.52C254.05 160.6 207.61 207.05 150.52 207.05ZM150.52 2C94.54 2 49 47.54 49 103.52C49 159.5 94.54 205.05 150.52 205.05C206.5 205.05 252.05 159.51 252.05 103.52C252.05 47.54 206.5 2 150.52 2Z" fill="white"/>
<path d="M150.52 190.12C102.77 190.12 63.9302 151.27 63.9302 103.53C63.9302 55.7799 102.78 16.9399 150.52 16.9399C198.27 16.9399 237.11 55.7899 237.11 103.53C237.12 151.27 198.27 190.12 150.52 190.12ZM150.52 23.7799C106.55 23.7799 70.7802 59.5499 70.7802 103.52C70.7802 147.49 106.55 183.26 150.52 183.26C194.49 183.26 230.26 147.49 230.26 103.52C230.26 59.5499 194.49 23.7799 150.52 23.7799Z" fill="#FF9D00"/>
<path d="M150.52 173.18C112.11 173.18 80.8599 141.93 80.8599 103.52C80.8599 65.1101 112.11 33.8601 150.52 33.8601C188.93 33.8601 220.18 65.1101 220.18 103.52C220.18 141.93 188.93 173.18 150.52 173.18ZM150.52 35.8601C113.21 35.8601 82.8599 66.2101 82.8599 103.52C82.8599 140.83 113.21 171.18 150.52 171.18C187.83 171.18 218.18 140.83 218.18 103.52C218.18 66.2101 187.83 35.8601 150.52 35.8601Z" fill="white"/>
<path d="M150.52 156.25C121.45 156.25 97.79 132.6 97.79 103.52C97.79 74.44 121.44 50.79 150.52 50.79C179.6 50.79 203.25 74.44 203.25 103.52C203.25 132.6 179.6 156.25 150.52 156.25ZM150.52 52.8C122.55 52.8 99.79 75.56 99.79 103.53C99.79 131.5 122.55 154.26 150.52 154.26C178.49 154.26 201.25 131.5 201.25 103.53C201.25 75.56 178.5 52.8 150.52 52.8Z" fill="white"/>
<path d="M150.52 139.32C130.78 139.32 114.73 123.26 114.73 103.52C114.73 83.78 130.79 67.73 150.52 67.73C170.26 67.73 186.32 83.79 186.32 103.52C186.32 123.26 170.26 139.32 150.52 139.32ZM150.52 69.73C131.89 69.73 116.73 84.89 116.73 103.52C116.73 122.15 131.89 137.32 150.52 137.32C169.15 137.32 184.32 122.16 184.32 103.52C184.32 84.88 169.16 69.73 150.52 69.73Z" fill="white"/>
<path d="M150.52 122.39C140.12 122.39 131.66 113.93 131.66 103.53C131.66 93.1299 140.12 84.6699 150.52 84.6699C160.92 84.6699 169.38 93.1299 169.38 103.53C169.39 113.92 160.92 122.39 150.52 122.39ZM150.52 86.6599C141.22 86.6599 133.66 94.2199 133.66 103.52C133.66 112.82 141.22 120.38 150.52 120.38C159.82 120.38 167.38 112.82 167.38 103.52C167.39 94.2299 159.82 86.6599 150.52 86.6599Z" fill="white"/>
<path d="M119.98 206.97V158H71.0098V206.97V255.94H119.98H168.95V206.97H119.98Z" fill="#FF9D00"/>
<path d="M149.94 276.95H50V177.01H100.97V225.98H149.94V276.95ZM52 274.95H147.94V227.98H98.97V179.01H52V274.95Z" fill="white"/>
<path d="M130.23 158.53H127.25V201.03H130.23V158.53Z" fill="#FFC200"/>
<path d="M137.82 158.52H134.84V201.02H137.82V158.52Z" fill="#FFC200"/>
<path d="M145.4 158.53H142.42V201.03H145.4V158.53Z" fill="#FFC200"/>
<path d="M152.98 158.53H150V201.03H152.98V158.53Z" fill="#FFC200"/>
<path d="M160.56 158.52H157.58V201.02H160.56V158.52Z" fill="#FFC200"/>
<path d="M168.05 158.53H165.16V201.03H168.05V158.53Z" fill="#FFC200"/>
<path d="M123.17 113.98C125.76 112.42 129.13 113.25 130.69 115.85C132.25 118.44 131.42 121.81 128.82 123.37C126.23 124.93 122.86 124.1 121.3 121.5C119.74 118.92 120.58 115.55 123.17 113.98Z" fill="#FCC9A7"/>
<path d="M129.38 114.37C129.2 114.23 119.58 102.93 119.58 102.93L115.65 107.69L124.33 118.68L129.38 114.37Z" fill="#FCC9A7"/>
<path d="M121.27 202.47L118.82 213.66L111.08 212.5L113.58 201.46L121.27 202.47Z" fill="#FCC9A7"/>
<path d="M155.97 201.47L156.06 212.93L148.27 213.51L148.25 202.19L155.97 201.47Z" fill="#FCC9A7"/>
<path d="M119.8 211.84C119.64 211.37 119.07 211.17 118.66 211.47C117.86 212.05 116.45 212.73 114.41 212.49C112.29 212.24 111.53 211.12 111.27 210.32C111.13 209.9 110.68 209.68 110.27 209.84L97.1399 215.1C96.3399 215.42 95.6999 216.04 95.3699 216.83C95.0499 217.57 95.5899 218.4 96.3999 218.4L118.71 218.56C119.59 218.57 120.29 217.84 120.25 216.96L120.06 212.65C120.06 212.58 120.04 212.51 120.02 212.44L119.8 211.84Z" fill="white"/>
<path d="M147.48 211.84C147.64 211.37 148.22 211.17 148.62 211.47C149.42 212.05 150.83 212.73 152.87 212.49C154.99 212.24 155.74 211.12 156.01 210.32C156.15 209.9 156.6 209.68 157.01 209.84L170.14 215.1C170.94 215.42 171.58 216.04 171.91 216.83C172.23 217.57 171.69 218.4 170.88 218.4L148.57 218.56C147.69 218.57 146.99 217.84 147.03 216.96L147.22 212.65C147.22 212.58 147.24 212.51 147.26 212.44L147.48 211.84Z" fill="white"/>
<path d="M147.38 57.7998L140.45 58.3998L129.43 64.6098V108.77H158.84V64.6098L147.38 57.7998Z" fill="#48C2FF"/>
<path d="M145.48 62.25H143.49C141.43 62.25 139.76 60.58 139.76 58.52V51.04H149.2V58.52C149.21 60.58 147.54 62.25 145.48 62.25Z" fill="#FCC9A7"/>
<path d="M139.76 54.85C139.76 54.85 141.23 57.8 144.57 57.8C147.91 57.8 149.2 54.79 149.2 54.79L139.76 54.85Z" fill="#F4BE9A"/>
<path d="M144.59 56.0701H144.28C139.47 56.0701 135.51 52.2701 135.32 47.4601L135.15 42.6701C134.95 37.5801 139.02 33.3501 144.11 33.3501H144.76C148.61 33.3501 153.92 37.5801 153.72 42.6701L153.55 47.4601C153.36 52.2701 149.4 56.0701 144.59 56.0701Z" fill="#FCC9A7"/>
<path d="M138.07 46.3002C138.18 47.9202 136.96 49.3202 135.34 49.4302C133.72 49.5402 132.32 48.3202 132.21 46.7002C132.1 45.0802 133.32 43.6802 134.94 43.5702C136.56 43.4702 137.96 44.6902 138.07 46.3002Z" fill="#FCC9A7"/>
<path d="M156.65 46.3002C156.76 47.9202 155.54 49.3202 153.92 49.4302C152.3 49.5402 150.9 48.3202 150.79 46.7002C150.68 45.0802 151.9 43.6802 153.52 43.5702C155.14 43.4702 156.54 44.6902 156.65 46.3002Z" fill="#FCC9A7"/>
<path d="M129.43 108.56L111.14 205.79L121.65 205.69L148.39 108.75L129.43 108.56Z" fill="white"/>
<path d="M158.84 108.77L157.69 205.89H146.58L142.15 109.38L158.84 108.77Z" fill="white"/>
<path d="M129.43 64.6099C129.43 64.6099 104.869 79.4299 98.8995 89.7099C97.7295 91.7199 99.2495 94.3199 101.309 95.3899C103.589 96.5799 106.4 95.7699 107.71 93.5599L130.43 80.3799C130.44 80.3799 129.43 69.0599 129.43 64.6099Z" fill="#48C2FF"/>
<path d="M134.639 37.23L135.329 44.59H136.439L136.579 40.73C136.579 40.73 137.159 39.25 139.749 36.07C139.749 36.07 141.439 40.39 151.909 39.55L152.519 44.43L153.599 44.31L154.169 39.07C154.549 37.3 154.679 35.65 154.359 33.87C153.709 30.27 150.779 28.28 142.319 30.82C141.619 31.03 143.049 30.89 142.319 30.82C139.899 30.55 133.519 30.52 134.639 37.23Z" fill="#FFC700"/>
<path d="M147.1 108.07L144.72 133.53C144.63 134.49 145.28 135.36 146.23 135.54L175.43 141.12C176.5 141.33 177.52 140.57 177.64 139.49L180.31 115.29C180.41 114.35 179.8 113.48 178.87 113.26L149.38 106.42C148.28 106.16 147.21 106.94 147.1 108.07Z" fill="#AFAFAF"/>
<path d="M148.72 108.52L146.34 133.98C146.25 134.94 146.9 135.81 147.85 135.99L177.05 141.57C178.12 141.77 179.14 141.02 179.26 139.94L181.93 115.74C182.03 114.8 181.42 113.93 180.49 113.71L151 106.87C149.91 106.61 148.83 107.39 148.72 108.52Z" fill="#D1D1D1"/>
<path d="M163.919 134.51C166.819 135.37 168.48 138.42 167.62 141.32C166.76 144.22 163.71 145.88 160.81 145.03C157.91 144.17 156.249 141.12 157.099 138.22C157.969 135.31 161.009 133.65 163.919 134.51Z" fill="#FCC9A7"/>
<path d="M167.83 139.35C167.81 139.12 166.87 123.86 166.87 123.86L161.68 124.8L162.37 137.81L167.83 139.35Z" fill="#FCC9A7"/>
<path d="M158.84 64.6099C158.84 64.6099 166.7 70.2399 167.2 78.2599L169.66 97.0099C169.8 98.1099 169.86 99.2099 169.82 100.32L168.87 128.84H158.08L157.88 97.9699L158.84 64.6099Z" fill="#48C2FF"/>
<path d="M141.28 57.7998C140.44 58.4098 136.39 60.6898 136.39 60.6898C136.39 60.6898 136.5 66.3898 145.08 65.9298C152.63 65.5298 152.58 60.8998 152.58 60.8998L147.37 57.7998H141.28Z" fill="#FCC9A7"/>
<path d="M111 86.0098L125.679 109.47L118.719 116.06L98.9395 92.9698L111 86.0098Z" fill="#48C2FF"/>
<path d="M157.87 108.46V97.9601L155.43 78.8101" stroke="#48C2FF" stroke-width="0.7693" stroke-miterlimit="10" stroke-linecap="round" stroke-linejoin="round"/>
<path d="M59.5902 51.8333C58.4702 51.8333 57.6602 52.6433 57.6602 53.7533C57.6602 54.8733 58.4702 55.6833 59.5802 55.6833C60.7002 55.6833 61.5002 54.8733 61.5102 53.7633C61.5102 52.6433 60.7102 51.8333 59.5902 51.8333Z" fill="white"/>
<path d="M78.85 51.8334C77.73 51.8134 76.89 52.6034 76.87 53.7134C76.85 54.8334 77.65 55.6734 78.75 55.6934C79.87 55.7134 80.7 54.9234 80.72 53.8134C80.75 52.6834 79.96 51.8534 78.85 51.8334Z" fill="white"/>
<path d="M98.0399 51.8333C96.9199 51.8233 96.0999 52.6333 96.0899 53.7433C96.0799 54.8633 96.8899 55.6833 97.9999 55.6933C99.1199 55.7033 99.9299 54.9033 99.9399 53.7833C99.9499 52.6533 99.1599 51.8433 98.0399 51.8333Z" fill="white"/>
<path d="M11.53 65.3034C12.65 65.3034 13.46 64.5034 13.46 63.3834C13.46 62.2634 12.66 61.4534 11.54 61.4534C10.42 61.4534 9.60995 62.2634 9.60995 63.3734C9.59995 64.4834 10.42 65.2934 11.53 65.3034Z" fill="white"/>
<path d="M30.72 65.3032C31.84 65.3132 32.66 64.5232 32.68 63.4032C32.69 62.2732 31.9 61.4532 30.79 61.4432C29.67 61.4332 28.84 62.2232 28.83 63.3332C28.81 64.4532 29.62 65.2832 30.72 65.3032Z" fill="white"/>
<path d="M49.9501 61.4432C48.8401 61.4532 48.0301 62.2732 48.0401 63.3932C48.0501 64.5032 48.8801 65.3132 49.9901 65.3032C51.1101 65.2932 51.9001 64.4732 51.8901 63.3532C51.8901 62.2332 51.0701 61.4332 49.9501 61.4432Z" fill="white"/>
<path d="M69.2701 61.4432C68.1501 61.4132 67.3001 62.1932 67.2601 63.2932C67.2301 64.4132 68.0101 65.2632 69.1101 65.3032C70.2301 65.3332 71.0801 64.5532 71.1101 63.4532C71.1501 62.3132 70.3801 61.4732 69.2701 61.4432Z" fill="white"/>
<path d="M88.4503 61.4432C87.3303 61.4332 86.5003 62.2332 86.4903 63.3332C86.4803 64.4532 87.2803 65.2832 88.3903 65.2932C89.5103 65.3032 90.3303 64.5032 90.3403 63.3932C90.3503 62.2732 89.5603 61.4532 88.4503 61.4432Z" fill="white"/>
<path d="M21.15 74.9132C22.27 74.9032 23.07 74.0932 23.06 72.9732C23.06 71.8532 22.25 71.0532 21.13 71.0532C20.01 71.0532 19.21 71.8732 19.21 72.9932C19.22 74.1032 20.04 74.9132 21.15 74.9132Z" fill="white"/>
<path d="M38.4403 72.8433C38.3803 73.9733 39.1403 74.8433 40.2303 74.9133C41.3503 74.9733 42.2303 74.2133 42.2903 73.1233C42.3503 71.9933 41.6003 71.1233 40.5103 71.0633C39.3703 70.9933 38.5003 71.7533 38.4403 72.8433Z" fill="white"/>
<path d="M59.66 71.0533C58.54 71.0233 57.69 71.7933 57.66 72.9033C57.63 74.0233 58.41 74.8733 59.51 74.9133C60.63 74.9433 61.48 74.1633 61.51 73.0633C61.54 71.9233 60.77 71.0833 59.66 71.0533Z" fill="white"/>
<path d="M78.7702 71.0533C77.6602 71.0633 76.8602 71.8933 76.8802 73.0133C76.8902 74.1233 77.7202 74.9233 78.8402 74.9133C79.9502 74.8933 80.7402 74.0733 80.7302 72.9533C80.7102 71.8333 79.8902 71.0433 78.7702 71.0533Z" fill="white"/>
<path d="M30.7501 84.5233C31.8701 84.5233 32.6701 83.7233 32.6801 82.6033C32.6801 81.4833 31.8801 80.6733 30.7601 80.6733C29.6401 80.6733 28.8301 81.4833 28.8301 82.5933C28.8301 83.7033 29.6401 84.5233 30.7501 84.5233Z" fill="white"/>
<path d="M49.9299 80.6632C48.8199 80.6832 48.0199 81.5132 48.0399 82.6332C48.0599 83.7432 48.8899 84.5432 50.0099 84.5232C51.1199 84.5032 51.9099 83.6832 51.8899 82.5532C51.8799 81.4332 51.0599 80.6432 49.9299 80.6632Z" fill="white"/>
<path d="M69.2301 80.6634C68.1101 80.6534 67.2801 81.4534 67.2701 82.5534C67.2601 83.6734 68.0601 84.5034 69.1701 84.5134C70.2901 84.5234 71.1101 83.7334 71.1201 82.6134C71.1301 81.4934 70.3401 80.6734 69.2301 80.6634Z" fill="white"/>
<path d="M40.2899 94.1333C41.4099 94.1633 42.2599 93.3833 42.2899 92.2833C42.3199 91.1533 41.5499 90.3133 40.4499 90.2833C39.3299 90.2533 38.4799 91.0333 38.4399 92.1333C38.3999 93.2433 39.1899 94.0933 40.2899 94.1333Z" fill="white"/>
<path d="M59.6303 90.2733C58.5103 90.2533 57.6703 91.0433 57.6503 92.1533C57.6303 93.2733 58.4303 94.1133 59.5303 94.1333C60.6503 94.1533 61.4803 93.3633 61.5003 92.2533C61.5303 91.1233 60.7403 90.2933 59.6303 90.2733Z" fill="white"/>
<path d="M49.9402 99.8834C48.8302 99.9034 48.0302 100.723 48.0502 101.843C48.0702 102.953 48.9002 103.753 50.0102 103.733C51.1202 103.713 51.9102 102.893 51.9002 101.773C51.8802 100.663 51.0602 99.8634 49.9402 99.8834Z" fill="white"/>
<path d="M30.7602 26.8634C31.8802 26.8634 32.6802 26.0534 32.6802 24.9234C32.6802 23.8034 31.8702 23.0034 30.7502 23.0034C29.6302 23.0034 28.8202 23.8234 28.8302 24.9334C28.8302 26.0534 29.6502 26.8634 30.7602 26.8634Z" fill="white"/>
<path d="M51.8902 25.0633C51.9502 23.9333 51.2002 23.0633 50.1102 23.0033C48.9802 22.9433 48.1102 23.7033 48.0502 24.7933C47.9902 25.9133 48.7502 26.7933 49.8402 26.8533C50.9602 26.9233 51.8402 26.1533 51.8902 25.0633Z" fill="white"/>
<path d="M69.2301 23.0033C68.1101 22.9933 67.2801 23.7933 67.2701 24.8933C67.2601 26.0133 68.0601 26.8433 69.1701 26.8533C70.2901 26.8633 71.1101 26.0733 71.1201 24.9533C71.1301 23.8333 70.3401 23.0233 69.2301 23.0033Z" fill="white"/>
<path d="M21.1801 36.4734C22.2901 36.4534 23.0801 35.6334 23.0701 34.5134C23.0601 33.4034 22.2401 32.6034 21.1101 32.6234C20.0001 32.6434 19.2001 33.4634 19.2201 34.5834C19.2301 35.6834 20.0601 36.4834 21.1801 36.4734Z" fill="white"/>
<path d="M40.4 32.6134C39.28 32.6034 38.46 33.3934 38.44 34.5034C38.43 35.6234 39.22 36.4534 40.33 36.4634C41.45 36.4734 42.27 35.6834 42.29 34.5634C42.3 33.4534 41.51 32.6334 40.4 32.6134Z" fill="white"/>
<path d="M59.6002 32.6134C58.4802 32.6034 57.6602 33.4034 57.6602 34.5234C57.6502 35.6434 58.4602 36.4634 59.5702 36.4734C60.6902 36.4834 61.5002 35.6734 61.5102 34.5634C61.5102 33.4334 60.7202 32.6234 59.6002 32.6134Z" fill="white"/>
<path d="M78.7999 32.6133C77.6799 32.6133 76.8799 33.4233 76.8799 34.5433C76.8799 35.6633 77.6999 36.4733 78.8099 36.4633C79.9299 36.4633 80.7299 35.6533 80.7299 34.5233C80.7199 33.4133 79.9199 32.6133 78.7999 32.6133Z" fill="white"/>
<path d="M11.5101 46.0832C12.6301 46.0932 13.4401 45.2932 13.4501 44.1732C13.4601 43.0532 12.6601 42.2332 11.5501 42.2232C10.4301 42.2132 9.6101 43.0232 9.6001 44.1332C9.6001 45.2432 10.4101 46.0732 11.5101 46.0832Z" fill="white"/>
<path d="M30.7303 46.0832C31.8503 46.0932 32.6603 45.2932 32.6703 44.1732C32.6803 43.0532 31.8803 42.2332 30.7703 42.2232C29.6503 42.2132 28.8303 43.0232 28.8203 44.1332C28.8203 45.2432 29.6303 46.0732 30.7303 46.0832Z" fill="white"/>
<path d="M50.0499 42.2232C48.9299 42.1932 48.0799 42.9732 48.0399 44.0732C48.0099 45.1932 48.7899 46.0432 49.8899 46.0832C51.0099 46.1232 51.8599 45.3332 51.8899 44.2332C51.9299 43.0932 51.1599 42.2632 50.0499 42.2232Z" fill="white"/>
<path d="M69.2 42.2234C68.08 42.2234 67.27 43.0334 67.27 44.1434C67.27 45.2634 68.08 46.0734 69.19 46.0834C70.31 46.0834 71.12 45.2834 71.12 44.1634C71.12 43.0334 70.32 42.2234 69.2 42.2234Z" fill="white"/>
<path d="M88.4301 42.2232C87.3101 42.2132 86.4901 43.0232 86.4801 44.1332C86.4701 45.2532 87.2801 46.0732 88.3901 46.0832C89.5101 46.0932 90.3201 45.2832 90.3301 44.1732C90.3401 43.0432 89.5501 42.2332 88.4301 42.2232Z" fill="white"/>
<path d="M1.91009 55.6934C3.03009 55.7034 3.84009 54.8934 3.85009 53.7834C3.86009 52.6634 3.06009 51.8434 1.95009 51.8434C0.83009 51.8334 0.0100916 52.6434 9.15817e-05 53.7534C-0.00990842 54.8534 0.800091 55.6834 1.91009 55.6934Z" fill="white"/>
<path d="M21.0702 55.6934C22.1902 55.7334 23.0402 54.9434 23.0702 53.8434C23.1002 52.7134 22.3302 51.8734 21.2302 51.8334C20.1102 51.8034 19.2602 52.5834 19.2202 53.6834C19.1802 54.8034 19.9702 55.6534 21.0702 55.6934Z" fill="white"/>
<path d="M40.3903 51.8333C39.2703 51.8233 38.4403 52.6233 38.4303 53.7333C38.4203 54.8533 39.2203 55.6833 40.3303 55.6933C41.4503 55.7033 42.2703 54.9033 42.2803 53.7933C42.3003 52.6633 41.5103 51.8433 40.3903 51.8333Z" fill="white"/>
</svg>
