<svg width="240" height="40" viewBox="0 0 240 40" fill="none" xmlns="http://www.w3.org/2000/svg">
<path d="M32.28 0.919999V29H25.44V12.16L19.16 29H13.64L7.32 12.12V29H0.48V0.919999H8.56L16.44 20.36L24.24 0.919999H32.28ZM35.8388 17.8C35.8388 15.5067 36.2654 13.4933 37.1188 11.76C37.9988 10.0267 39.1854 8.69333 40.6788 7.76C42.1721 6.82667 43.8388 6.36 45.6788 6.36C47.2521 6.36 48.6254 6.68 49.7988 7.32C50.9988 7.96 51.9188 8.8 52.5588 9.84V6.68H59.3988V29H52.5588V25.84C51.8921 26.88 50.9588 27.72 49.7588 28.36C48.5854 29 47.2121 29.32 45.6388 29.32C43.8254 29.32 42.1721 28.8533 40.6788 27.92C39.1854 26.96 37.9988 25.6133 37.1188 23.88C36.2654 22.12 35.8388 20.0933 35.8388 17.8ZM52.5588 17.84C52.5588 16.1333 52.0788 14.7867 51.1188 13.8C50.1854 12.8133 49.0388 12.32 47.6788 12.32C46.3188 12.32 45.1588 12.8133 44.1988 13.8C43.2654 14.76 42.7988 16.0933 42.7988 17.8C42.7988 19.5067 43.2654 20.8667 44.1988 21.88C45.1588 22.8667 46.3188 23.36 47.6788 23.36C49.0388 23.36 50.1854 22.8667 51.1188 21.88C52.0788 20.8933 52.5588 19.5467 52.5588 17.84ZM71.1872 10.4C71.9872 9.17333 72.9872 8.21333 74.1872 7.52C75.3872 6.8 76.7205 6.44 78.1872 6.44V13.68H76.3072C74.6005 13.68 73.3205 14.0533 72.4672 14.8C71.6139 15.52 71.1872 16.8 71.1872 18.64V29H64.3472V6.68H71.1872V10.4ZM80.0966 17.88C80.0966 15.6667 80.5499 13.6933 81.4566 11.96C82.3899 10.2267 83.6299 8.88 85.1766 7.92C86.7499 6.93333 88.4566 6.44 90.2966 6.44C91.7099 6.44 92.9766 6.69333 94.0966 7.2C95.2166 7.68 96.1232 8.36 96.8166 9.24V6.68H103.657V39.64H96.8166V26.2C96.0432 27.1333 95.0966 27.88 93.9766 28.44C92.8832 29 91.6299 29.28 90.2166 29.28C88.4032 29.28 86.7232 28.8 85.1766 27.84C83.6299 26.88 82.3899 25.5333 81.4566 23.8C80.5499 22.0667 80.0966 20.0933 80.0966 17.88ZM96.8166 17.84C96.8166 16.64 96.5766 15.64 96.0966 14.84C95.6432 14.0133 95.0432 13.4 94.2966 13C93.5499 12.5733 92.7632 12.36 91.9366 12.36C91.1366 12.36 90.3632 12.5733 89.6166 13C88.8699 13.4 88.2566 14.0133 87.7766 14.84C87.2966 15.6667 87.0566 16.68 87.0566 17.88C87.0566 19.08 87.2966 20.0933 87.7766 20.92C88.2566 21.72 88.8699 22.3333 89.6166 22.76C90.3632 23.16 91.1366 23.36 91.9366 23.36C92.7366 23.36 93.5099 23.16 94.2566 22.76C95.0299 22.3333 95.6432 21.7067 96.0966 20.88C96.5766 20.0533 96.8166 19.04 96.8166 17.84ZM130.645 6.68V29H123.805V25.96C123.112 26.9467 122.165 27.7467 120.965 28.36C119.792 28.9467 118.485 29.24 117.045 29.24C115.338 29.24 113.832 28.8667 112.525 28.12C111.218 27.3467 110.205 26.24 109.485 24.8C108.765 23.36 108.405 21.6667 108.405 19.72V6.68H115.205V18.8C115.205 20.2933 115.592 21.4533 116.365 22.28C117.138 23.1067 118.178 23.52 119.485 23.52C120.818 23.52 121.872 23.1067 122.645 22.28C123.418 21.4533 123.805 20.2933 123.805 18.8V6.68H130.645ZM156.598 17.48C156.598 18.12 156.558 18.7867 156.478 19.48H140.998C141.105 20.8667 141.545 21.9333 142.318 22.68C143.118 23.4 144.091 23.76 145.238 23.76C146.945 23.76 148.131 23.04 148.798 21.6H156.078C155.705 23.0667 155.025 24.3867 154.038 25.56C153.078 26.7333 151.865 27.6533 150.398 28.32C148.931 28.9867 147.291 29.32 145.478 29.32C143.291 29.32 141.345 28.8533 139.638 27.92C137.931 26.9867 136.598 25.6533 135.638 23.92C134.678 22.1867 134.198 20.16 134.198 17.84C134.198 15.52 134.665 13.4933 135.598 11.76C136.558 10.0267 137.891 8.69333 139.598 7.76C141.305 6.82667 143.265 6.36 145.478 6.36C147.638 6.36 149.558 6.81333 151.238 7.72C152.918 8.62667 154.225 9.92 155.158 11.6C156.118 13.28 156.598 15.24 156.598 17.48ZM149.598 15.68C149.598 14.5067 149.198 13.5733 148.398 12.88C147.598 12.1867 146.598 11.84 145.398 11.84C144.251 11.84 143.278 12.1733 142.478 12.84C141.705 13.5067 141.225 14.4533 141.038 15.68H149.598ZM193.803 29H186.963L175.523 11.68V29H168.683V0.919999H175.523L186.963 18.32V0.919999H193.803V29ZM205.601 23.72H214.561V29H198.761V0.919999H205.601V23.72ZM239.224 9.96C239.224 11.5867 238.85 13.08 238.104 14.44C237.357 15.7733 236.21 16.8533 234.664 17.68C233.117 18.5067 231.197 18.92 228.904 18.92H224.664V29H217.824V0.919999H228.904C231.144 0.919999 233.037 1.30667 234.584 2.08C236.13 2.85333 237.29 3.92 238.064 5.28C238.837 6.64 239.224 8.2 239.224 9.96ZM228.384 13.48C229.69 13.48 230.664 13.1733 231.304 12.56C231.944 11.9467 232.264 11.08 232.264 9.96C232.264 8.84 231.944 7.97333 231.304 7.36C230.664 6.74667 229.69 6.44 228.384 6.44H224.664V13.48H228.384Z" fill="#B8454D"/>
</svg>
