<svg width="519" height="519" viewBox="0 0 519 519" fill="none" xmlns="http://www.w3.org/2000/svg">
<rect width="519" height="519" fill="black"/>
<path fill-rule="evenodd" clip-rule="evenodd" d="M158.84 248.016C144.648 243.698 134.317 230.47 134.317 214.822C134.317 199.223 144.583 186.03 158.706 181.67C172.548 138.911 212.589 108 259.826 108C306.998 108 346.993 138.825 360.888 181.492C375.317 185.662 385.871 199.006 385.871 214.822C385.871 230.687 375.251 244.065 360.754 248.19C346.737 290.645 306.847 321.274 259.826 321.274C212.74 321.274 172.805 290.561 158.84 248.016ZM342.841 249.503H178.735C192.184 281.651 223.858 304.229 260.788 304.229C297.718 304.229 329.392 281.651 342.841 249.503ZM342.693 180.141C329.161 148.18 297.584 125.766 260.788 125.766C223.992 125.766 192.415 148.18 178.883 180.141H342.693ZM149.028 214.822C149.028 203.819 157.919 194.899 168.887 194.899H351.3C362.268 194.899 371.16 203.819 371.16 214.822C371.16 225.826 362.268 234.746 351.3 234.746H168.887C157.919 234.746 149.028 225.826 149.028 214.822Z" fill="url(#paint0_linear_169_886)"/>
<g filter="url(#filter0_d_169_886)">
<path fill-rule="evenodd" clip-rule="evenodd" d="M165.652 179.462C146.417 179.462 130.824 195.054 130.824 214.289C130.824 233.524 146.417 249.117 165.652 249.117H351.318C370.553 249.117 386.146 233.524 386.146 214.289C386.146 195.054 370.553 179.462 351.318 179.462H165.652ZM168.221 194.419C157.231 194.419 148.322 203.329 148.322 214.319C148.322 225.309 157.231 234.218 168.221 234.218H351.076C362.066 234.218 370.975 225.309 370.975 214.319C370.975 203.329 362.066 194.419 351.076 194.419H168.221Z" fill="url(#paint1_linear_169_886)"/>
</g>
<path fill-rule="evenodd" clip-rule="evenodd" d="M215.878 409.94C234.613 409.94 249.8 394.656 249.8 375.802C249.8 356.948 234.613 341.664 215.878 341.664C197.144 341.664 181.956 356.948 181.956 375.802C181.956 394.656 197.144 409.94 215.878 409.94ZM215.878 401.224C229.829 401.224 241.139 389.843 241.139 375.802C241.139 361.762 229.829 350.38 215.878 350.38C201.927 350.38 190.617 361.762 190.617 375.802C190.617 389.843 201.927 401.224 215.878 401.224Z" fill="url(#paint2_linear_169_886)"/>
<path d="M318.697 393.878C320.642 395.33 321.047 398.127 319.34 399.856C313.195 406.084 304.68 409.94 295.269 409.94C276.535 409.94 261.348 394.656 261.348 375.802C261.348 356.948 276.535 341.664 295.269 341.664C305.834 341.664 315.27 346.524 321.491 354.144C322.992 355.981 322.392 358.661 320.409 359.957C318.382 361.281 315.693 360.643 314.079 358.833C309.454 353.644 302.74 350.38 295.269 350.38C281.318 350.38 270.009 361.762 270.009 375.802C270.009 389.843 281.318 401.224 295.269 401.224C301.882 401.224 307.902 398.667 312.404 394.482C314.142 392.867 316.797 392.46 318.697 393.878Z" fill="url(#paint3_linear_169_886)"/>
<path d="M386.939 409.94C384.404 410 377.187 409.94 372.101 410C370.127 409.968 368.45 409.94 367.443 409.94C348.709 409.94 333.522 394.656 333.522 375.802C333.522 356.949 348.709 341.664 367.443 341.664C385.428 341.664 400.141 355.749 401.292 373.556C401.34 373.815 401.365 374.077 401.365 374.35V389.603C401.365 392.01 399.425 393.961 397.035 393.961C394.644 393.961 392.704 392.01 392.704 389.603V376.529L392.698 376.305L392.704 375.802C392.704 361.762 381.393 350.38 367.443 350.38C353.493 350.38 342.182 361.762 342.182 375.802C342.182 389.843 353.493 401.224 367.443 401.224H389.095C391.486 401.224 393.426 403.176 393.426 405.582C393.426 407.989 391.486 409.94 389.095 409.94H386.939Z" fill="url(#paint4_linear_169_886)"/>
<path d="M143.343 401.224L143.704 401.226C143.743 401.226 143.782 401.226 143.821 401.226C143.86 401.226 143.899 401.226 143.938 401.226C144.215 401.225 144.497 401.224 144.787 401.224C148.917 401.224 152.09 399.727 154.473 397.877C156.856 396.028 158.048 393.696 158.048 390.881C158.048 387.986 156.777 385.855 154.235 384.488C151.693 383.04 147.761 381.633 142.439 380.266C137.593 378.979 133.621 377.692 130.523 376.405C127.504 375.038 124.883 373.068 122.659 370.495C120.514 367.841 119.442 364.383 119.442 360.121C119.442 359.975 119.438 359.921 119.435 359.881C119.432 359.826 119.43 359.798 119.442 359.603V359.065C119.698 356.091 120.752 353.407 122.436 350.953C124.422 348.058 127.242 345.766 130.896 344.077C134.47 342.468 138.636 341.664 143.323 341.664C143.45 341.664 143.577 341.665 143.704 341.665V341.664C154.268 341.664 163.704 346.524 169.925 354.144C171.426 355.981 170.826 358.661 168.843 359.957C166.816 361.281 164.127 360.643 162.513 358.833C157.888 353.644 151.175 350.38 143.704 350.38H143.343C143.206 350.381 143.123 350.38 142.983 350.38C138.852 350.38 136.019 351.878 133.636 353.727C131.947 355.038 130.856 356.592 130.365 358.388C130.237 358.854 130.204 359.34 130.204 359.823V360.549C130.204 362.72 130.96 364.101 132.31 365.549C133.74 366.916 135.488 368.042 137.553 368.926C139.698 369.731 142.637 370.655 146.371 371.701C151.057 372.988 154.87 374.274 157.81 375.561C160.749 376.767 163.251 378.617 165.316 381.11C167.461 383.603 168.573 386.86 168.653 390.881C168.653 394.5 167.66 397.757 165.674 400.652C163.688 403.547 160.868 405.839 157.214 407.528C153.639 409.136 149.474 409.94 144.787 409.94C144.544 409.94 144.303 409.939 144.062 409.937L143.704 409.94C133.14 409.94 124.061 405.193 117.84 397.573C116.339 395.735 116.94 393.055 118.922 391.76C120.949 390.436 123.639 391.074 125.253 392.884C129.803 397.99 136.016 401.122 143.343 401.224Z" fill="url(#paint5_linear_169_886)"/>
<defs>
<filter id="filter0_d_169_886" x="126.824" y="175.462" width="263.322" height="77.6551" filterUnits="userSpaceOnUse" color-interpolation-filters="sRGB">
<feFlood flood-opacity="0" result="BackgroundImageFix"/>
<feColorMatrix in="SourceAlpha" type="matrix" values="0 0 0 0 0 0 0 0 0 0 0 0 0 0 0 0 0 0 127 0" result="hardAlpha"/>
<feOffset/>
<feGaussianBlur stdDeviation="2"/>
<feComposite in2="hardAlpha" operator="out"/>
<feColorMatrix type="matrix" values="0 0 0 0 0 0 0 0 0 0 0 0 0 0 0 0 0 0 0.2 0"/>
<feBlend mode="normal" in2="BackgroundImageFix" result="effect1_dropShadow_169_886"/>
<feBlend mode="normal" in="SourceGraphic" in2="effect1_dropShadow_169_886" result="shape"/>
</filter>
<linearGradient id="paint0_linear_169_886" x1="476.902" y1="118.794" x2="503.473" y2="277.711" gradientUnits="userSpaceOnUse">
<stop stop-color="#0BBDFB"/>
<stop offset="1" stop-color="#BC3BF2"/>
</linearGradient>
<linearGradient id="paint1_linear_169_886" x1="230.978" y1="179.462" x2="284.419" y2="251.847" gradientUnits="userSpaceOnUse">
<stop stop-color="#22ADFA"/>
<stop offset="1" stop-color="#6D75F6"/>
</linearGradient>
<linearGradient id="paint2_linear_169_886" x1="259.204" y1="332.437" x2="265.325" y2="413.591" gradientUnits="userSpaceOnUse">
<stop stop-color="#0BBDFB"/>
<stop offset="1" stop-color="#BC3BF2"/>
</linearGradient>
<linearGradient id="paint3_linear_169_886" x1="259.204" y1="332.437" x2="265.325" y2="413.591" gradientUnits="userSpaceOnUse">
<stop stop-color="#0BBDFB"/>
<stop offset="1" stop-color="#BC3BF2"/>
</linearGradient>
<linearGradient id="paint4_linear_169_886" x1="259.204" y1="332.437" x2="265.325" y2="413.591" gradientUnits="userSpaceOnUse">
<stop stop-color="#0BBDFB"/>
<stop offset="1" stop-color="#BC3BF2"/>
</linearGradient>
<linearGradient id="paint5_linear_169_886" x1="259.204" y1="332.437" x2="265.325" y2="413.591" gradientUnits="userSpaceOnUse">
<stop stop-color="#0BBDFB"/>
<stop offset="1" stop-color="#BC3BF2"/>
</linearGradient>
</defs>
</svg>
