<svg width="94" height="22" viewBox="0 0 94 22" fill="none" xmlns="http://www.w3.org/2000/svg">
<path fill-rule="evenodd" clip-rule="evenodd" d="M32.6853 21.9808C38.8782 21.9808 43.8985 17.0602 43.8985 10.9904C43.8985 4.92057 38.8782 0 32.6853 0C26.4924 0 21.4721 4.92057 21.4721 10.9904C21.4721 17.0602 26.4924 21.9808 32.6853 21.9808ZM32.6853 19.1748C37.297 19.1748 41.0355 15.5105 41.0355 10.9904C41.0355 6.47032 37.297 2.80606 32.6853 2.80606C28.0736 2.80606 24.335 6.47032 24.335 10.9904C24.335 15.5105 28.0736 19.1748 32.6853 19.1748Z" fill="url(#paint0_linear_209_876)"/>
<path d="M66.6731 16.8097C67.316 17.2773 67.4499 18.1776 66.8858 18.7343C64.8544 20.7393 62.0396 21.9808 58.9289 21.9808C52.7361 21.9808 47.7157 17.0602 47.7157 10.9904C47.7157 4.92057 52.7361 0 58.9289 0C62.421 0 65.5403 1.56461 67.5968 4.01761C68.0929 4.60929 67.8945 5.47203 67.2392 5.88906C66.5691 6.31548 65.68 6.11005 65.1465 5.52716C63.6178 3.85686 61.3985 2.80606 58.9289 2.80606C54.3172 2.80606 50.5787 6.47032 50.5787 10.9904C50.5787 15.5105 54.3172 19.1748 58.9289 19.1748C61.1149 19.1748 63.1046 18.3515 64.5931 17.0041C65.1674 16.4842 66.0453 16.3531 66.6731 16.8097Z" fill="url(#paint1_linear_209_876)"/>
<path d="M89.2312 21.9808C88.3934 22 86.0076 21.9808 84.3264 22C83.674 21.9897 83.1195 21.9808 82.7868 21.9808C76.594 21.9808 71.5736 17.0602 71.5736 10.9904C71.5736 4.92066 76.594 0 82.7868 0C88.7317 0 93.5955 4.5345 93.9758 10.2672C93.9916 10.3506 94 10.435 94 10.5227V15.4333C94 16.2082 93.3588 16.8364 92.5685 16.8364C91.7782 16.8364 91.1371 16.2082 91.1371 15.4333V11.2242L91.1352 11.1521L91.1371 10.9904C91.1371 6.47029 87.3981 2.80606 82.7868 2.80606C78.1755 2.80606 74.4365 6.47029 74.4365 10.9904C74.4365 15.5105 78.1755 19.1748 82.7868 19.1748H89.9442C90.7345 19.1748 91.3756 19.803 91.3756 20.5778C91.3756 21.3526 90.7345 21.9808 89.9442 21.9808H89.2312Z" fill="url(#paint2_linear_209_876)"/>
<path d="M8.70812 19.1748L8.82736 19.1753C8.84018 19.1753 8.85306 19.1753 8.86598 19.1753C8.87884 19.1752 8.89174 19.1752 8.90469 19.1752C8.99609 19.175 9.0895 19.1748 9.18522 19.1748C10.5507 19.1748 11.5994 18.6928 12.3872 18.0973C13.175 17.5018 13.5688 16.751 13.5688 15.8448C13.5688 14.9128 13.1487 14.2267 12.3084 13.7866C11.4681 13.3205 10.1683 12.8675 8.409 12.4273C6.80722 12.0131 5.49429 11.5988 4.4702 11.1846C3.47237 10.7445 2.60583 10.1101 1.87059 9.28165C1.1616 8.42728 0.807114 7.314 0.807114 5.94181C0.807114 5.89502 0.805897 5.87744 0.805005 5.86454C0.803785 5.8469 0.803173 5.83803 0.807114 5.77508V5.60209C0.89182 4.64441 1.24031 3.78052 1.79687 2.99032C2.45333 2.05827 3.38551 1.3204 4.59341 0.776706C5.77505 0.258901 7.15203 0 8.70129 0C8.74333 0 8.78531 0.000101877 8.82722 0.000309509C12.3193 0.000309509 15.4386 1.56461 17.4951 4.01761C17.9911 4.60929 17.7928 5.47203 17.1374 5.88906C16.4674 6.31548 15.5783 6.11005 15.0448 5.52716C13.5161 3.85689 11.2969 2.8061 8.82736 2.80606H8.70812C8.66277 2.80614 8.63523 2.80606 8.58883 2.80606C7.22338 2.80606 6.28709 3.28806 5.49933 3.88354C4.94087 4.30569 4.58036 4.80591 4.4178 5.3842C4.37564 5.53418 4.36474 5.69039 4.36474 5.84596V6.0798C4.36474 6.77884 4.61463 7.22338 5.06102 7.6894C5.53368 8.12954 6.11137 8.492 6.7941 8.77679C7.50308 9.0357 8.47465 9.33344 9.70881 9.67001C11.2581 10.0843 12.5185 10.4985 13.4901 10.9127C14.4616 11.3011 15.2888 11.8966 15.9715 12.6992C16.6805 13.5018 17.0481 14.5503 17.0744 15.8448C17.0744 17.0099 16.7461 18.0584 16.0897 18.9905C15.4332 19.9225 14.501 20.6604 13.2931 21.2041C12.1115 21.7219 10.7345 21.9808 9.18522 21.9808C9.10509 21.9808 9.0252 21.9804 8.94558 21.9797L8.82741 21.9808C5.33531 21.9808 2.33421 20.4523 0.277702 17.9993C-0.218338 17.4076 -0.0199574 16.5449 0.635359 16.1278C1.30544 15.7014 2.19448 15.9069 2.72798 16.4897C4.23233 18.1333 6.28597 19.1418 8.70812 19.1748Z" fill="url(#paint3_linear_209_876)"/>
<defs>
<linearGradient id="paint0_linear_209_876" x1="9.66241" y1="-0.818371" x2="14.0217" y2="25.8676" gradientUnits="userSpaceOnUse">
<stop stop-color="#0BBDFB"/>
<stop offset="1" stop-color="#BC3BF2"/>
</linearGradient>
<linearGradient id="paint1_linear_209_876" x1="9.66241" y1="-0.818371" x2="14.0217" y2="25.8676" gradientUnits="userSpaceOnUse">
<stop stop-color="#0BBDFB"/>
<stop offset="1" stop-color="#BC3BF2"/>
</linearGradient>
<linearGradient id="paint2_linear_209_876" x1="9.66241" y1="-0.818371" x2="14.0217" y2="25.8676" gradientUnits="userSpaceOnUse">
<stop stop-color="#0BBDFB"/>
<stop offset="1" stop-color="#BC3BF2"/>
</linearGradient>
<linearGradient id="paint3_linear_209_876" x1="9.66241" y1="-0.818371" x2="14.0217" y2="25.8676" gradientUnits="userSpaceOnUse">
<stop stop-color="#0BBDFB"/>
<stop offset="1" stop-color="#BC3BF2"/>
</linearGradient>
</defs>
</svg>
