<svg width="122" height="52" viewBox="0 0 122 52" fill="none" xmlns="http://www.w3.org/2000/svg">
<path d="M0.773438 20.1719C0.75 19.9844 0.703125 19.8203 0.632812 19.6797C0.585938 19.5156 0.527344 19.3398 0.457031 19.1523C0.339844 18.8711 0.234375 18.5664 0.140625 18.2383C0.046875 17.9102 0 17.5234 0 17.0781C0.046875 16.8438 0.105469 16.6797 0.175781 16.5859C0.246094 16.4688 0.316406 16.375 0.386719 16.3047L0.527344 15.6719H1.05469C1.24219 15.6953 1.42969 15.707 1.61719 15.707C1.82812 15.707 2.02734 15.707 2.21484 15.707C3.10547 15.707 4.01953 15.6719 4.95703 15.6016C5.89453 15.5312 6.85547 15.4492 7.83984 15.3555C8.91797 15.2148 10.0781 15.1094 11.3203 15.0391C11.4375 14.7812 11.5078 14.6172 11.5312 14.5469C11.5781 14.4766 11.625 14.3945 11.6719 14.3008L12.0586 14.0898C12.5977 14.0664 12.9727 14.1367 13.1836 14.3008C13.3945 14.4414 13.5586 14.582 13.6758 14.7227C14.2852 14.6758 14.9062 14.6172 15.5391 14.5469C16.1719 14.4531 16.8281 14.3594 17.5078 14.2656C18.4453 14.1484 19.3945 14.0313 20.3555 13.9141C21.3164 13.7969 22.2539 13.7383 23.168 13.7383C23.5664 13.7383 23.9414 13.75 24.293 13.7734C24.6445 13.7969 24.9844 13.832 25.3125 13.8789L25.7344 14.1953C25.8281 14.3594 25.9453 14.5117 26.0859 14.6523C26.2266 14.793 26.3906 14.9336 26.5781 15.0742C26.9297 15.3555 27.2695 15.707 27.5977 16.1289C27.9492 16.5508 28.0781 17.1719 27.9844 17.9922L27.8086 18.3438C27.7148 18.4375 27.5977 18.5312 27.457 18.625L27.1055 19.082H26.7188C26.4844 19.082 26.3086 19.1055 26.1914 19.1523C26.0742 19.1758 25.9336 19.2227 25.7695 19.293C25.6758 19.3398 25.5703 19.3867 25.4531 19.4336C25.3359 19.457 25.207 19.4922 25.0664 19.5391C24.8086 19.5156 24.6094 19.5039 24.4688 19.5039C24.3281 19.5039 24.1641 19.5039 23.9766 19.5039C23.2734 19.5039 22.5117 19.5508 21.6914 19.6445C20.8711 19.7383 20.0742 19.8438 19.3008 19.9609C18.7383 20.0312 18.1992 20.1016 17.6836 20.1719C17.168 20.2188 16.6992 20.2656 16.2773 20.3125C16.043 20.9219 15.832 21.4609 15.6445 21.9297C15.457 22.3984 15.2578 22.8672 15.0469 23.3359C14.8359 23.8047 14.6367 24.2852 14.4492 24.7773C14.2617 25.2461 14.0859 25.7734 13.9219 26.3594C13.6406 26.7812 13.4062 27.1914 13.2188 27.5898C13.0312 27.9648 12.8789 28.3984 12.7617 28.8906C12.4102 29.2891 12.1523 29.7227 11.9883 30.1914C11.8477 30.6602 11.7188 31.0586 11.6016 31.3867L11.4609 31.9141C11.2969 32.0781 11.1914 32.207 11.1445 32.3008C11.1211 32.3945 11.0625 32.5 10.9688 32.6172C10.8984 32.9219 10.8047 33.2148 10.6875 33.4961C10.6406 33.6133 10.5938 33.7422 10.5469 33.8828C10.5 34 10.4883 34.0938 10.5117 34.1641C10.4648 34.4219 10.3945 34.6211 10.3008 34.7617C10.3008 34.9023 10.2891 35.043 10.2656 35.1836C10.2422 35.3242 10.2188 35.4648 10.1953 35.6055C10.1484 35.7695 10.1133 35.9219 10.0898 36.0625C10.0664 36.1797 10.0781 36.2969 10.125 36.4141C10.1953 36.5078 10.2656 36.6016 10.3359 36.6953C10.4062 36.7891 10.4648 36.9062 10.5117 37.0469C10.5586 37.0938 10.6172 37.1289 10.6875 37.1523C10.7578 37.1758 10.8164 37.2109 10.8633 37.2578C11.0508 37.4219 11.2266 37.5156 11.3906 37.5391L11.7422 37.9609C11.8828 38.8047 11.7539 39.4609 11.3555 39.9297C10.9336 40.4688 10.2305 40.7383 9.24609 40.7383L8.75391 40.7031C8.58984 40.5391 8.49609 40.4336 8.47266 40.3867C8.26172 40.293 8.08594 40.2109 7.94531 40.1406C7.80469 40.0938 7.67578 39.9883 7.55859 39.8242C7.51172 39.7773 7.45312 39.7539 7.38281 39.7539C7.3125 39.7305 7.25391 39.6953 7.20703 39.6484C6.97266 39.5781 6.78516 39.4961 6.64453 39.4023L6.25781 39.1914C6.28125 38.957 6.29297 38.793 6.29297 38.6992C6.10547 38.4414 5.95312 38.1602 5.83594 37.8555C5.74219 37.5508 5.66016 37.2344 5.58984 36.9062C5.51953 36.6484 5.44922 36.4141 5.37891 36.2031C5.33203 35.9922 5.25 35.8047 5.13281 35.6406C5.08594 34 5.23828 32.6289 5.58984 31.5273C5.94141 30.4023 6.32812 29.3125 6.75 28.2578C6.98438 27.6953 7.20703 27.1211 7.41797 26.5352C7.62891 25.9492 7.81641 25.3516 7.98047 24.7422L8.36719 24.3555C8.53125 24.2148 8.63672 24.1328 8.68359 24.1094C8.68359 23.8047 8.74219 23.5117 8.85938 23.2305C8.97656 22.9258 9.10547 22.6211 9.24609 22.3164C9.33984 22.1289 9.42188 21.9414 9.49219 21.7539C9.58594 21.5664 9.64453 21.4023 9.66797 21.2617C9.50391 21.2617 9.35156 21.2734 9.21094 21.2969C9.09375 21.2969 8.96484 21.3086 8.82422 21.332C8.51953 21.4023 8.22656 21.4375 7.94531 21.4375C7.73438 21.4375 7.58203 21.4258 7.48828 21.4023C7.30078 21.4961 7.125 21.5547 6.96094 21.5781C6.79688 21.5781 6.63281 21.5781 6.46875 21.5781H6.04688H5.625C5.34375 21.5781 5.12109 21.6133 4.95703 21.6836C4.62891 21.6836 4.41797 21.6836 4.32422 21.6836C4.23047 21.6836 4.125 21.6836 4.00781 21.6836H3.58594H3.16406C2.97656 21.6836 2.76562 21.6719 2.53125 21.6484C2.29688 21.6016 2.05078 21.5078 1.79297 21.3672L1.54688 21.0859C1.40625 20.8281 1.27734 20.6875 1.16016 20.6641L0.773438 20.5586V20.1719ZM23.8359 38.8047C23.6484 38.6172 23.5078 38.3945 23.4141 38.1367C23.3438 37.8789 23.1562 37.668 22.8516 37.5039C22.8047 37.1523 22.7344 36.7539 22.6406 36.3086C22.5703 35.8398 22.4883 35.3711 22.3945 34.9023C22.3242 34.4102 22.2656 33.9297 22.2188 33.4609C22.1953 32.9688 22.2188 32.5234 22.2891 32.125C22.3359 31.9141 22.4062 31.7148 22.5 31.5273C22.6172 31.3398 22.7227 31.1641 22.8164 31C22.9336 30.8125 23.0156 30.625 23.0625 30.4375C23.1328 30.25 23.1445 30.0625 23.0977 29.875C23.2383 29.8516 23.3203 29.7812 23.3438 29.6641C23.3906 29.5234 23.5078 29.4766 23.6953 29.5234C23.8594 29.0078 24.0352 28.5273 24.2227 28.082C24.4102 27.6367 24.6094 27.2031 24.8203 26.7812C25.0312 26.3594 25.2422 25.9375 25.4531 25.5156C25.6875 25.0703 25.8984 24.5781 26.0859 24.0391C25.6875 23.6641 25.3945 23.2656 25.207 22.8438C25.043 22.3984 24.9141 21.9531 24.8203 21.5078C24.7266 21.0625 24.6562 20.6172 24.6094 20.1719C24.5625 19.7031 24.4688 19.2344 24.3281 18.7656C24.6094 18.3438 24.9492 18.0039 25.3477 17.7461C25.7461 17.4648 26.1797 17.2422 26.6484 17.0781C27.1406 16.8906 27.668 16.75 28.2305 16.6562C28.793 16.5391 29.3906 16.4102 30.0234 16.2695C31.1484 15.918 32.1562 15.6484 33.0469 15.4609C33.9375 15.25 34.8047 15.0859 35.6484 14.9688C36.4922 14.8281 37.3711 14.7109 38.2852 14.6172C39.1992 14.5 40.2539 14.3359 41.4492 14.125C41.4727 14.1953 41.5078 14.2305 41.5547 14.2305C41.625 14.2305 41.707 14.2305 41.8008 14.2305C41.8711 14.3945 42 14.4766 42.1875 14.4766C42.1875 14.4062 42.1758 14.3477 42.1523 14.3008C42.1523 14.2305 42.1523 14.1719 42.1523 14.125C42.1992 14.125 42.2578 14.1367 42.3281 14.1602C42.4219 14.1836 42.4922 14.207 42.5391 14.2305C42.6094 14.2539 42.668 14.2539 42.7148 14.2305C42.7617 14.1836 42.7734 14.1016 42.75 13.9844C43.0312 14.4766 43.3945 14.8867 43.8398 15.2148C44.2852 15.5195 44.7773 15.7891 45.3164 16.0234C45.3398 16.2344 45.3398 16.3867 45.3164 16.4805C45.3164 16.5742 45.3047 16.668 45.2812 16.7617C45.2578 16.832 45.2461 16.9258 45.2461 17.043C45.2461 17.1367 45.2695 17.2773 45.3164 17.4648C44.9414 18.0977 44.5078 18.5898 44.0156 18.9414C43.5469 19.293 43.043 19.5625 42.5039 19.75C41.9648 19.9375 41.3906 20.0781 40.7812 20.1719C40.1953 20.2656 39.5859 20.3711 38.9531 20.4883C38.3438 20.582 37.7227 20.7227 37.0898 20.9102C36.457 21.0977 35.8359 21.3789 35.2266 21.7539C35.0391 21.6836 34.8633 21.6602 34.6992 21.6836C34.5586 21.6836 34.4062 21.707 34.2422 21.7539C34.0781 21.8008 33.8906 21.8477 33.6797 21.8945C33.4922 21.9414 33.2578 21.9414 32.9766 21.8945C32.7891 22.0586 32.5664 22.1758 32.3086 22.2461C32.0742 22.3164 31.8281 22.3867 31.5703 22.457C31.6875 22.7148 31.7344 22.9727 31.7109 23.2305C31.7109 23.4883 31.7461 23.7109 31.8164 23.8984C32.8008 23.9922 33.8906 23.9922 35.0859 23.8984C36.2812 23.7812 37.4531 23.6992 38.6016 23.6523C38.625 23.7695 38.6133 23.8516 38.5664 23.8984C38.5195 23.9453 38.4961 24.0273 38.4961 24.1445C38.707 24.2852 38.9062 24.4609 39.0938 24.6719C39.2812 24.8828 39.4688 25.0938 39.6562 25.3047C39.8672 25.4922 40.0781 25.6562 40.2891 25.7969C40.5 25.9141 40.7461 25.9609 41.0273 25.9375C41.1445 26.1719 41.2266 26.418 41.2734 26.6758C41.3203 26.9336 41.2852 27.2031 41.168 27.4844C40.6992 27.7891 40.2422 28.1055 39.7969 28.4336C39.3516 28.7383 38.8828 29.0195 38.3906 29.2773C37.9219 29.5352 37.4062 29.7461 36.8438 29.9102C36.2812 30.0742 35.6719 30.1445 35.0156 30.1211C34.8984 30.1211 34.793 30.1211 34.6992 30.1211C34.6289 30.1211 34.5352 30.0742 34.418 29.9805C34.1836 30.0977 33.8672 30.1445 33.4688 30.1211C33.0938 30.0742 32.7773 30.1094 32.5195 30.2266C32.1914 30.1094 31.8047 30.0508 31.3594 30.0508C30.9375 30.0508 30.5625 29.9922 30.2344 29.875C29.8125 30.4844 29.4141 31.1289 29.0391 31.8086C28.6641 32.4648 28.3359 33.168 28.0547 33.918C29.0156 34.0586 29.8125 34.1172 30.4453 34.0938C31.0781 34.0703 31.6758 34.0234 32.2383 33.9531C32.8008 33.8828 33.375 33.8125 33.9609 33.7422C34.5703 33.6719 35.3086 33.6484 36.1758 33.6719C36.7617 33.3906 37.4297 33.2031 38.1797 33.1094C38.9531 32.9922 39.668 32.8281 40.3242 32.6172C40.5586 32.6875 40.7578 32.8281 40.9219 33.0391C41.0859 33.2266 41.2383 33.4258 41.3789 33.6367C41.543 33.8242 41.707 33.9883 41.8711 34.1289C42.0352 34.2695 42.2461 34.3164 42.5039 34.2695C42.6211 34.3867 42.6914 34.5273 42.7148 34.6914C42.7617 34.8555 42.7969 35.0078 42.8203 35.1484C42.8672 35.2891 42.9258 35.4062 42.9961 35.5C43.0664 35.5703 43.1953 35.5938 43.3828 35.5703C42.9375 36.4844 42.4336 37.1875 41.8711 37.6797C41.332 38.1719 40.7109 38.5586 40.0078 38.8398C39.3281 39.0977 38.5547 39.2969 37.6875 39.4375C36.8438 39.5547 35.8945 39.707 34.8398 39.8945C34.582 39.9414 34.3594 39.9414 34.1719 39.8945C34.0078 39.8242 33.832 39.7891 33.6445 39.7891C32.9883 39.9062 32.2031 40.0234 31.2891 40.1406C30.3984 40.2578 29.4961 40.3047 28.582 40.2812C27.668 40.2578 26.7891 40.1406 25.9453 39.9297C25.1016 39.7188 24.3984 39.3438 23.8359 38.8047ZM44.4375 31.668C44.4375 31.4102 44.4727 31.1758 44.543 30.9648C44.6133 30.7539 44.625 30.4844 44.5781 30.1562C45.3047 28.6094 46.125 27.1797 47.0391 25.8672C47.9766 24.5312 49.0898 23.3594 50.3789 22.3516C50.5898 22.1875 50.7539 22.0234 50.8711 21.8594C51.0117 21.6719 51.1406 21.4961 51.2578 21.332C51.3984 21.168 51.5508 21.0273 51.7148 20.9102C51.8789 20.7695 52.0898 20.6758 52.3477 20.6289C52.9336 19.9492 53.6367 19.3281 54.457 18.7656C55.2773 18.2031 56.1328 17.6641 57.0234 17.1484C57.9141 16.6328 58.8047 16.1055 59.6953 15.5664C60.6094 15.0273 61.4297 14.4414 62.1562 13.8086C62.4141 13.9727 62.6133 14.0313 62.7539 13.9844C62.918 13.9141 63.082 13.9023 63.2461 13.9492C63.457 14.3945 63.7266 14.7109 64.0547 14.8984C64.4062 15.0625 64.7578 15.2383 65.1094 15.4258C65.4844 15.5898 65.8242 15.8008 66.1289 16.0586C66.457 16.293 66.7031 16.6211 66.8672 17.043C66.7031 17.043 66.6211 17.1016 66.6211 17.2188C66.6445 17.3359 66.6797 17.4648 66.7266 17.6055C66.7734 17.7461 66.7969 17.875 66.7969 17.9922C66.7969 18.1094 66.6914 18.168 66.4805 18.168C66.4805 18.332 66.5625 18.4141 66.7266 18.4141C66.8906 18.4141 66.9727 18.4961 66.9727 18.6602C66.9727 18.8008 66.9375 18.918 66.8672 19.0117C66.8203 19.082 66.8203 19.2109 66.8672 19.3984C66.3047 19.7734 65.6719 20.1367 64.9688 20.4883C64.2891 20.8164 63.5625 21.168 62.7891 21.543C62.0391 21.918 61.2656 22.3281 60.4688 22.7734C59.6953 23.1953 58.9219 23.6875 58.1484 24.25C57.375 24.8125 56.5898 25.4336 55.793 26.1133C55.0195 26.793 54.2695 27.5195 53.543 28.293C52.8164 29.043 52.1367 29.8281 51.5039 30.6484C50.8711 31.4453 50.332 32.2305 49.8867 33.0039C49.9336 33.1211 49.9922 33.2266 50.0625 33.3203C50.1562 33.4141 50.2266 33.5195 50.2734 33.6367C51.1641 33.6836 51.9961 33.6836 52.7695 33.6367C53.543 33.5664 54.3164 33.6133 55.0898 33.7773C55.1836 33.707 55.2422 33.6133 55.2656 33.4961C55.2891 33.3789 55.3594 33.2969 55.4766 33.25C57.0703 33.0859 58.5586 32.8281 59.9414 32.4766C61.3242 32.1016 62.7305 31.7266 64.1602 31.3516C63.7383 31.1875 63.3633 31.0586 63.0352 30.9648C62.8945 30.8242 62.8945 30.707 63.0352 30.6133C63.1992 30.4961 63.3281 30.3789 63.4219 30.2617C63.0469 30.0508 62.7305 29.7695 62.4727 29.418C62.2383 29.0664 62.0977 28.6094 62.0508 28.0469C62.2148 27.9062 62.2969 27.7422 62.2969 27.5547C62.2969 27.3672 62.2148 27.2148 62.0508 27.0977C61.9336 27.0508 61.8633 27.0508 61.8398 27.0977C61.8164 27.1445 61.793 27.1914 61.7695 27.2383C61.7695 27.2852 61.7461 27.332 61.6992 27.3789C61.6758 27.4258 61.6172 27.4258 61.5234 27.3789C61.5469 27.1211 61.6055 26.9102 61.6992 26.7461C61.793 26.582 61.8633 26.3828 61.9102 26.1484L64.8281 24.2148C65.1328 24.4492 65.5078 24.6953 65.9531 24.9531C66.3984 25.2109 66.8672 25.4688 67.3594 25.7266C67.8516 25.9844 68.3555 26.2539 68.8711 26.5352C69.3867 26.793 69.8672 27.0508 70.3125 27.3086C70.7344 27.4961 71.0977 27.7305 71.4023 28.0117C71.707 28.2695 72 28.5508 72.2812 28.8555C72.5625 29.1367 72.8438 29.418 73.125 29.6992C73.4062 29.9805 73.7461 30.2148 74.1445 30.4023C74.0977 30.7773 74.1211 31.082 74.2148 31.3164C74.3086 31.5508 74.332 31.832 74.2852 32.1602C73.8398 32.957 73.3008 33.6367 72.668 34.1992C72.0352 34.7383 71.3203 35.207 70.5234 35.6055C69.75 36.0039 68.918 36.3438 68.0273 36.625C67.1367 36.8828 66.2227 37.1406 65.2852 37.3984C64.3477 37.6328 63.3984 37.8906 62.4375 38.1719C61.5 38.4297 60.5742 38.7344 59.6602 39.0859C59.2617 39.0859 58.9219 39.0977 58.6406 39.1211C58.3594 39.1445 58.0898 39.1797 57.832 39.2266C57.5742 39.2734 57.3164 39.3203 57.0586 39.3672C56.8008 39.4141 56.5195 39.4492 56.2148 39.4727C56.0977 39.4492 56.0156 39.4727 55.9688 39.543C55.9453 39.6133 55.8984 39.6719 55.8281 39.7188C55.3594 39.7891 54.9375 39.8242 54.5625 39.8242C54.1875 39.8242 53.8711 39.8242 53.6133 39.8242C53.2852 39.8242 52.9453 39.8711 52.5938 39.9648C52.2422 40.0586 51.9141 40.0938 51.6094 40.0703C49.5 39.9766 47.8477 39.2266 46.6523 37.8203C45.457 36.4141 44.8008 34.4805 44.6836 32.0195C44.707 31.9023 44.6836 31.832 44.6133 31.8086C44.543 31.7617 44.4844 31.7148 44.4375 31.668ZM71.9297 36.6602L72.3867 36.3086L72.4219 35.5703C73.0078 34.1406 73.6055 32.7695 74.2148 31.457C74.8477 30.1445 75.5039 28.7969 76.1836 27.4141C76.3945 26.9688 76.6055 26.5234 76.8164 26.0781C77.0508 25.6328 77.2734 25.1758 77.4844 24.707C77.4609 24.6133 77.4492 24.5195 77.4492 24.4258C77.4492 24.3086 77.4727 24.1797 77.5195 24.0391C77.8477 23.5703 78.1055 23.1484 78.293 22.7734C78.5039 22.3984 78.7031 22.0117 78.8906 21.6133C79.1016 21.1445 79.3242 20.6758 79.5586 20.207C79.8164 19.7383 80.1328 19.2812 80.5078 18.8359L80.7539 18.4844L81.1406 18.5195C81.2344 18.4727 81.3281 18.4375 81.4219 18.4141C81.5391 18.3672 81.6797 18.3438 81.8438 18.3438L82.4766 18.4492C83.25 18.0977 83.9297 17.5938 84.5156 16.9375C85.125 16.2578 85.7344 15.4492 86.3438 14.5117L86.7656 13.9141L87.3281 14.2656C87.4453 14.3359 87.6328 14.4062 87.8906 14.4766C88.1484 14.5469 88.418 14.6289 88.6992 14.7227C89.1914 14.8398 89.6719 14.9805 90.1406 15.1445C90.6094 15.2852 90.9727 15.4844 91.2305 15.7422L91.4062 16.0586C91.4531 16.3164 91.4883 16.5508 91.5117 16.7617C91.5586 16.9727 91.6055 17.1836 91.6523 17.3945C91.7461 17.8867 91.8281 18.3789 91.8984 18.8711C91.9688 19.3398 92.0156 19.8672 92.0391 20.4531C92.1562 20.9219 92.2617 21.4023 92.3555 21.8945C92.4727 22.3633 92.5781 22.832 92.6719 23.3008C92.7891 23.9805 92.918 24.6367 93.0586 25.2695C93.1992 25.8789 93.3867 26.4648 93.6211 27.0273C93.8555 27.0273 93.9961 27.0391 94.043 27.0625C94.3242 26.9453 94.6523 26.875 95.0273 26.8516L95.4844 26.8164L95.625 27.2383C95.6719 27.3086 95.7305 27.3789 95.8008 27.4492C95.8711 27.5195 95.9531 27.5898 96.0469 27.6602C96.4219 27.6836 96.6914 27.7656 96.8555 27.9062C97.043 28.0234 97.1953 28.1406 97.3125 28.2578C97.3594 28.3047 97.418 28.3633 97.4883 28.4336C97.5586 28.4805 97.6172 28.5156 97.6641 28.5391L98.2969 28.7852L97.9453 29.4531C97.6875 29.9453 97.2891 30.4258 96.75 30.8945C96.2344 31.3633 95.6484 31.75 94.9922 32.0547C95.0391 32.2188 95.0625 32.3711 95.0625 32.5117C95.0859 32.6523 95.1211 32.8164 95.168 33.0039C95.2617 33.4727 95.332 33.9648 95.3789 34.4805C95.4492 34.9727 95.4492 35.4883 95.3789 36.0273C95.1445 36.6367 94.8633 37.1875 94.5352 37.6797C94.2305 38.1484 93.8555 38.582 93.4102 38.9805C92.9883 39.3555 92.5078 39.6719 91.9688 39.9297C91.4297 40.1641 90.8672 40.293 90.2812 40.3164C89.9531 40.2461 89.707 40.1641 89.543 40.0703C89.4023 39.9766 89.2734 39.8828 89.1562 39.7891C88.9688 39.6484 88.8164 39.5547 88.6992 39.5078L88.2422 39.2969L88.3828 38.7695C88.4531 38.582 88.4414 38.418 88.3477 38.2773C88.2773 38.1367 88.1133 37.9492 87.8555 37.7148C87.7617 37.6445 87.6797 37.5742 87.6094 37.5039C87.5391 37.4102 87.457 37.3164 87.3633 37.2227L86.6602 36.4141L87.8203 36.0977C88.5234 35.9102 88.9922 35.6758 89.2266 35.3945C89.4609 35.0898 89.5547 34.5625 89.5078 33.8125C88.9219 33.6953 88.4414 33.6836 88.0664 33.7773C87.6914 33.8477 87.3164 33.9297 86.9414 34.0234C86.4023 34.1641 85.875 34.293 85.3594 34.4102C84.8438 34.5039 84.2812 34.5508 83.6719 34.5508C83.2734 34.5508 82.8516 34.5156 82.4062 34.4453L82.0195 34.4102L81.9141 34.0234C81.9141 33.9766 81.8789 33.9297 81.8086 33.8828C81.7617 33.8125 81.7148 33.7539 81.668 33.707C81.5508 33.5664 81.4102 33.3789 81.2461 33.1445C81.082 32.9102 81.0469 32.6172 81.1406 32.2656C80.9766 32.0078 80.8828 31.7383 80.8594 31.457C80.7656 31.6445 80.6836 31.832 80.6133 32.0195C80.5664 32.1836 80.5195 32.3477 80.4727 32.5117L80.332 32.9688L79.875 33.0391C79.8281 33.0859 79.7812 33.1562 79.7344 33.25C79.7109 33.3438 79.7109 33.4141 79.7344 33.4609L79.875 33.8477L79.5234 34.1641C79.4766 34.2344 79.418 34.293 79.3477 34.3398C79.2773 34.3867 79.2188 34.4336 79.1719 34.4805C79.125 34.7383 79.0547 34.9844 78.9609 35.2188C78.8906 35.4531 78.8086 35.6875 78.7148 35.9219C78.5977 36.2969 78.4805 36.6602 78.3633 37.0117C78.2695 37.3633 78.2227 37.7148 78.2227 38.0664L78.082 38.5234C77.9648 38.7109 77.8125 38.8516 77.625 38.9453C77.4609 39.0391 77.2969 39.1211 77.1328 39.1914C76.8984 39.2852 76.7344 39.3789 76.6406 39.4727L76.5352 39.9297L76.0078 40C75.7031 40.0703 75.4805 40.1172 75.3398 40.1406C75.2227 40.1641 75.082 40.1758 74.918 40.1758L74.4609 40.1406C74.1797 39.8594 73.9453 39.6484 73.7578 39.5078C73.5938 39.3438 73.3945 39.2031 73.1602 39.0859L72.9492 38.8047C72.8555 38.6172 72.7969 38.4531 72.7734 38.3125C72.75 38.1484 72.7148 37.9844 72.668 37.8203C72.6211 37.5156 72.5508 37.3047 72.457 37.1875L71.9297 36.6602ZM83.1445 27.5195C82.8164 27.9883 82.5 28.4805 82.1953 28.9961C82.3594 28.9727 82.5117 28.9609 82.6523 28.9609C82.8164 28.9609 82.9805 28.9492 83.1445 28.9258C83.9648 28.8789 84.7266 28.8203 85.4297 28.75C86.1328 28.6797 86.8945 28.5625 87.7148 28.3984C87.5273 27.5312 87.3164 26.6523 87.082 25.7617C86.8711 24.8477 86.6367 23.9336 86.3789 23.0195L86.2031 23.3711C85.6172 24.0039 85.0547 24.6836 84.5156 25.4102C83.9766 26.1367 83.5312 26.8281 83.1797 27.4844L83.1445 27.5195ZM99.1055 36.9766C98.9883 37 98.8828 36.918 98.7891 36.7305C98.6953 36.5195 98.5898 36.3203 98.4727 36.1328H98.8594C98.6953 35.6172 98.6484 35.1484 98.7188 34.7266C98.8125 34.2812 98.918 33.8594 99.0352 33.4609C99.1523 33.0391 99.2461 32.6406 99.3164 32.2656C99.4102 31.8672 99.375 31.457 99.2109 31.0352C99.3281 31.1055 99.4102 31.082 99.457 30.9648C99.5273 30.8242 99.5742 30.6602 99.5977 30.4727C99.6445 30.2617 99.6562 30.0508 99.6328 29.8398C99.6328 29.6055 99.6211 29.418 99.5977 29.2773C99.9023 28.5508 100.137 27.8008 100.301 27.0273C100.488 26.2539 100.652 25.4922 100.793 24.7422C100.934 23.9688 101.086 23.2305 101.25 22.5273C101.438 21.8008 101.672 21.1211 101.953 20.4883C102.281 20.4414 102.621 20.4883 102.973 20.6289C103.348 20.7461 103.594 20.8984 103.711 21.0859C104.438 20.5234 105.082 19.8438 105.645 19.0469C106.207 18.25 106.77 17.4766 107.332 16.7266C107.918 15.9531 108.574 15.2734 109.301 14.6875C110.027 14.1016 110.93 13.75 112.008 13.6328C112.57 14.0313 113.203 14.4648 113.906 14.9336C114.609 15.3789 115.184 15.9414 115.629 16.6211C115.816 16.7383 115.992 16.8672 116.156 17.0078C116.344 17.125 116.531 17.2422 116.719 17.3594V17.8867C117.047 18.1914 117.316 18.5547 117.527 18.9766C117.762 19.375 117.961 19.8086 118.125 20.2773C118.312 20.7227 118.488 21.1797 118.652 21.6484C118.816 22.1172 119.004 22.5508 119.215 22.9492C119.168 23.0898 119.145 23.2188 119.145 23.3359C119.168 23.4297 119.191 23.5352 119.215 23.6523C119.262 23.7461 119.297 23.8633 119.32 24.0039C119.344 24.1211 119.355 24.2734 119.355 24.4609C119.262 25.7031 118.852 26.7109 118.125 27.4844C117.422 28.2344 116.555 28.8555 115.523 29.3477C114.516 29.8164 113.438 30.2266 112.289 30.5781C111.141 30.9062 110.098 31.2695 109.16 31.668C109.16 31.7617 109.207 31.8086 109.301 31.8086C109.418 31.8086 109.453 31.8789 109.406 32.0195C110.109 32.4414 110.648 32.7812 111.023 33.0391C111.422 33.2969 111.785 33.5195 112.113 33.707C112.465 33.8711 112.84 34.0117 113.238 34.1289C113.66 34.2461 114.234 34.3867 114.961 34.5508C115.688 34.7148 116.25 34.8555 116.648 34.9727C117.07 35.0664 117.445 35.1484 117.773 35.2188C118.102 35.2656 118.453 35.3125 118.828 35.3594C119.203 35.4062 119.707 35.4648 120.34 35.5352C120.598 35.793 120.809 36.0977 120.973 36.4492C121.137 36.8008 121.254 37.1523 121.324 37.5039C121.395 37.8555 121.406 38.1953 121.359 38.5234C121.336 38.8281 121.242 39.0742 121.078 39.2617C121.102 39.3555 121.16 39.4023 121.254 39.4023C121.371 39.3789 121.488 39.3789 121.605 39.4023C121.441 39.5195 121.301 39.6602 121.184 39.8242C121.066 39.9883 120.949 40.1523 120.832 40.3164C120.715 40.4805 120.574 40.6328 120.41 40.7734C120.27 40.9141 120.082 40.9961 119.848 41.0195C119.004 41.3477 117.926 41.3594 116.613 41.0547C115.301 40.75 113.625 40.2109 111.586 39.4375C110.578 39.0625 109.758 38.7227 109.125 38.418C108.492 38.1133 107.941 37.8203 107.473 37.5391C107.004 37.2344 106.57 36.918 106.172 36.5898C105.773 36.2383 105.316 35.8281 104.801 35.3594C104.73 35.3828 104.684 35.4297 104.66 35.5C104.66 35.5703 104.625 35.6172 104.555 35.6406C104.438 36.5781 104.25 37.3398 103.992 37.9258C103.758 38.5117 103.406 39.1094 102.938 39.7188C102.562 39.6484 102.305 39.6836 102.164 39.8242C102.047 39.9648 101.895 40.0938 101.707 40.2109C101.473 40.2578 101.297 40.2461 101.18 40.1758C101.062 40.1289 100.957 40.0703 100.863 40C100.77 39.9297 100.664 39.8594 100.547 39.7891C100.43 39.7188 100.242 39.6953 99.9844 39.7188C99.9141 39.5078 99.8438 39.3086 99.7734 39.1211C99.7031 38.9102 99.5156 38.8164 99.2109 38.8398C99.2812 38.6289 99.3047 38.4531 99.2812 38.3125C99.2578 38.1484 99.2227 38.0078 99.1758 37.8906C99.1289 37.75 99.082 37.6094 99.0352 37.4688C99.0117 37.3281 99.0352 37.1641 99.1055 36.9766ZM110.848 20.9102C110.543 21.3555 110.203 21.7656 109.828 22.1406C109.453 22.4922 109.078 22.8672 108.703 23.2656C108.352 23.6406 108.035 24.0625 107.754 24.5312C107.473 24.9766 107.273 25.5156 107.156 26.1484C108.141 26.0312 109.172 25.7617 110.25 25.3398C111.328 24.8945 112.348 24.4727 113.309 24.0742C113.191 23.207 112.887 22.5156 112.395 22C111.902 21.4609 111.387 21.0977 110.848 20.9102Z" fill="#FA34AF"/>
</svg>
