<?xml version="1.0" standalone="no"?>
<!DOCTYPE svg PUBLIC "-//W3C//DTD SVG 20010904//EN"
 "http://www.w3.org/TR/2001/REC-SVG-20010904/DTD/svg10.dtd">
<svg version="1.0" xmlns="http://www.w3.org/2000/svg"
 width="216.000000pt" height="216.000000pt" viewBox="0 0 216.000000 216.000000"
 preserveAspectRatio="xMidYMid meet">
<metadata>
Created by potrace 1.14, written by Peter Selinger 2001-2017
</metadata>
<g transform="translate(0.000000,216.000000) scale(0.100000,-0.100000)"
fill="#000000" stroke="none">
<path d="M732 1972 c-39 -19 -48 -46 -53 -152 -2 -58 -13 -83 -118 -264 -28
-49 -51 -91 -51 -93 0 -2 -17 -30 -37 -61 l-38 -57 -5 -195 c-3 -107 -5 -333
-5 -501 0 -352 -3 -340 91 -359 30 -6 56 -11 59 -11 2 0 19 -5 37 -10 18 -5
49 -12 68 -15 19 -3 43 -7 52 -10 10 -3 28 -7 40 -10 21 -3 39 -7 86 -18 9 -2
51 -11 92 -20 41 -8 128 -27 192 -41 65 -14 131 -25 147 -25 16 0 89 29 162
64 74 35 187 89 252 120 101 48 120 61 132 88 11 27 13 129 11 541 l-2 508
-124 95 c-69 53 -132 99 -140 104 -11 7 -15 29 -15 92 -1 47 -7 98 -14 115
-19 48 -30 51 -216 68 -33 3 -71 8 -85 10 -14 2 -54 6 -90 10 -36 3 -81 8
-100 10 -19 2 -60 7 -90 10 -30 3 -77 8 -103 11 -87 11 -104 10 -135 -4z"/>
</g>
</svg>
